<svg id="svg" version="1.1" xmlns="http://www.w3.org/2000/svg" xmlns:xlink="http://www.w3.org/1999/xlink" width="400" height="302.7027027027027" viewBox="0, 0, 400,302.7027027027027"><g id="svgg"><path id="path0" d="M370.101 3.762 C 364.681 5.157,362.584 6.218,359.465 9.146 C 356.081 12.322,353.759 13.808,346.453 17.474 C 342.736 19.339,338.724 21.529,337.537 22.341 C 336.350 23.153,335.040 24.046,334.626 24.324 C 334.213 24.603,333.018 25.477,331.971 26.267 C 330.924 27.057,329.227 28.319,328.200 29.072 C 327.117 29.866,326.430 30.597,326.563 30.813 C 326.704 31.040,326.638 31.089,326.395 30.939 C 326.155 30.791,323.468 32.576,319.670 35.404 C 316.191 37.995,311.048 41.651,308.241 43.529 C 304.871 45.783,302.609 47.560,301.583 48.761 C 300.656 49.846,296.514 53.217,291.315 57.116 C 282.149 63.992,281.537 64.471,275.338 69.626 C 266.872 76.666,263.915 78.500,259.122 79.680 C 252.063 81.418,247.427 86.707,247.585 92.840 C 247.685 96.724,246.124 98.665,241.834 99.990 C 240.616 100.366,239.244 100.970,238.784 101.332 C 237.546 102.306,234.380 107.030,234.661 107.484 C 234.806 107.720,234.754 107.783,234.529 107.644 C 234.322 107.516,233.975 107.757,233.752 108.183 C 233.530 108.606,232.894 109.485,232.340 110.135 C 231.785 110.785,230.052 113.066,228.490 115.203 C 223.833 121.570,223.565 121.920,221.416 124.439 C 219.322 126.893,211.006 135.230,209.459 136.424 C 205.410 139.552,198.602 143.597,194.853 145.101 C 193.738 145.548,193.379 145.835,193.670 146.045 C 193.950 146.248,193.881 146.280,193.461 146.144 C 193.116 146.032,191.672 146.162,190.252 146.434 C 187.219 147.015,172.554 147.771,170.701 147.443 C 170.000 147.319,168.419 146.782,167.190 146.251 C 162.212 144.100,159.642 143.881,150.042 144.787 C 144.454 145.314,144.405 145.326,140.203 147.163 C 135.193 149.353,134.348 149.862,113.934 162.969 C 100.518 171.584,76.599 186.491,66.723 192.393 C 61.706 195.390,55.429 199.318,52.773 201.120 C 50.118 202.923,46.849 204.949,45.510 205.623 C 42.777 206.998,39.769 208.952,37.500 210.827 C 34.951 212.933,29.513 216.400,19.257 222.460 C 15.003 224.974,13.774 225.868,10.478 228.850 C 9.268 229.945,7.137 231.643,5.743 232.623 C 1.461 235.634,0.406 237.398,1.139 240.320 C 1.531 241.879,11.386 249.866,15.203 251.716 C 16.225 252.212,19.712 254.402,22.951 256.582 C 26.191 258.763,30.476 261.352,32.472 262.336 C 37.580 264.853,37.208 264.583,52.365 276.801 C 54.873 278.823,57.306 280.646,57.770 280.852 C 60.637 282.121,65.663 285.824,67.355 287.913 C 69.380 290.413,69.851 290.381,75.779 287.348 C 83.765 283.263,86.064 281.859,90.372 278.441 C 92.601 276.672,96.174 274.093,98.311 272.710 C 102.072 270.276,105.890 267.717,121.024 257.480 C 124.968 254.812,130.555 251.327,133.439 249.737 C 140.844 245.653,142.795 244.466,145.101 242.642 C 146.999 241.142,155.658 235.653,170.270 226.689 C 173.708 224.580,178.049 221.834,179.917 220.586 C 181.785 219.338,184.369 217.675,185.660 216.890 C 186.951 216.105,189.071 214.655,190.372 213.668 C 191.672 212.682,194.941 210.588,197.635 209.016 C 203.461 205.616,206.170 203.873,211.818 199.888 C 214.144 198.247,216.732 196.440,217.569 195.872 C 221.645 193.105,221.771 191.828,218.783 183.537 C 214.071 170.462,214.859 165.680,223.761 153.320 C 230.123 144.488,241.277 138.728,257.685 135.801 C 262.489 134.944,263.712 134.241,267.524 130.143 C 272.875 124.391,274.693 123.453,277.793 124.845 C 283.468 127.391,289.695 124.911,294.835 118.057 C 299.712 111.554,305.086 107.131,315.520 101.033 C 319.364 98.787,322.233 96.718,327.966 92.061 C 329.796 90.574,333.477 87.686,336.147 85.642 C 338.816 83.598,342.194 80.983,343.652 79.831 C 345.110 78.680,348.639 76.126,351.496 74.156 C 354.352 72.187,358.729 68.872,361.222 66.791 C 363.716 64.710,367.795 61.410,370.288 59.459 C 376.525 54.578,378.370 52.786,381.623 48.449 C 383.168 46.388,385.705 43.547,387.260 42.136 C 397.334 32.990,394.907 13.086,383.015 7.325 C 376.492 4.165,372.652 3.105,370.101 3.762 M369.456 12.692 C 376.428 14.719,383.405 21.770,385.311 28.716 C 387.335 36.091,383.345 41.604,381.088 34.552 C 378.607 26.796,373.072 20.519,365.062 16.377 C 360.246 13.887,363.675 11.012,369.456 12.692 M383.311 14.324 C 384.460 15.474,384.819 16.554,384.051 16.554 C 383.498 16.554,381.081 14.161,381.081 13.614 C 381.081 12.819,382.144 13.157,383.311 14.324 M356.197 21.747 C 356.806 22.001,357.921 22.930,358.674 23.811 C 360.465 25.907,361.486 25.776,361.486 23.450 C 361.486 17.668,371.823 25.318,376.032 34.215 C 377.396 37.098,377.362 40.541,375.970 40.541 C 375.834 40.541,375.094 39.400,374.324 38.007 C 372.253 34.255,370.239 34.644,371.225 38.605 C 371.420 39.391,371.688 41.382,371.820 43.030 C 372.030 45.659,372.197 46.232,373.192 47.709 C 374.604 49.807,374.622 49.640,372.801 51.318 C 369.198 54.640,368.243 54.151,368.243 48.983 C 368.243 44.355,367.882 43.786,366.086 45.582 C 365.109 46.559,365.061 46.749,364.826 50.579 C 364.569 54.780,363.909 57.308,362.810 58.302 C 361.600 59.398,361.342 58.546,361.762 54.844 C 362.046 52.349,362.041 51.485,361.743 51.301 C 361.146 50.932,360.921 51.193,359.785 53.573 C 359.209 54.781,357.840 57.110,356.743 58.750 C 355.646 60.389,354.306 62.883,353.763 64.291 C 352.442 67.721,351.808 68.533,348.190 71.423 C 342.431 76.024,339.422 77.508,337.957 76.473 C 337.468 76.127,336.851 75.693,336.587 75.507 C 335.926 75.042,334.879 76.360,334.622 77.980 C 333.999 81.907,332.893 83.754,330.106 85.521 C 327.723 87.032,326.842 86.778,325.539 84.206 C 324.387 81.933,322.635 83.199,322.635 86.305 C 322.635 88.614,321.928 90.135,321.295 89.189 C 321.109 88.910,320.954 88.412,320.951 88.080 C 320.941 86.893,319.980 85.135,319.342 85.135 C 318.138 85.135,317.905 85.825,317.905 89.404 C 317.905 93.459,317.643 94.341,316.270 94.910 C 314.843 95.501,313.537 94.821,312.669 93.035 C 311.260 90.134,310.612 89.964,307.216 91.602 C 304.513 92.906,304.392 93.185,304.392 98.138 C 304.392 105.609,301.510 106.250,299.672 99.189 C 298.334 94.050,297.688 93.502,294.999 95.227 C 294.088 95.812,292.561 96.523,291.606 96.807 C 288.484 97.734,288.115 100.383,290.734 103.065 C 292.869 105.252,293.224 113.234,291.294 115.687 C 286.307 122.028,277.602 121.990,275.827 115.619 C 274.671 111.468,274.198 110.207,272.796 107.535 C 268.524 99.391,263.806 94.823,257.575 92.796 C 253.440 91.451,253.378 91.412,253.378 90.149 C 253.378 88.168,256.526 86.010,261.404 84.646 C 263.124 84.166,265.261 83.485,266.153 83.133 C 267.347 82.662,268.633 82.494,271.032 82.494 C 272.824 82.494,274.425 82.410,274.591 82.307 C 274.757 82.205,277.120 82.368,279.843 82.669 C 285.064 83.247,286.149 83.056,286.149 81.553 C 286.149 81.014,284.254 79.560,283.108 79.219 C 280.651 78.488,278.716 77.603,278.716 77.210 C 278.716 76.491,281.008 75.581,282.215 75.821 C 287.798 76.931,289.050 75.445,284.924 72.606 C 281.318 70.125,283.358 68.390,290.428 67.924 C 295.320 67.602,296.034 66.769,292.886 65.056 C 290.713 63.873,290.732 63.237,292.990 61.450 C 295.699 59.306,296.670 58.928,298.254 59.402 C 303.136 60.865,307.108 58.212,302.956 56.261 C 302.259 55.934,301.689 55.471,301.689 55.233 C 301.689 53.872,309.322 47.793,320.439 40.301 C 323.226 38.422,326.703 35.845,328.166 34.574 C 333.434 29.995,334.077 29.824,336.824 32.264 C 339.842 34.944,341.191 34.101,339.470 30.611 C 337.927 27.483,338.404 27.125,341.447 29.127 C 346.652 32.552,348.773 32.523,346.791 29.054 C 345.422 26.660,346.601 25.623,349.456 26.708 C 352.595 27.901,353.758 27.266,353.057 24.742 C 352.271 21.912,353.588 20.656,356.197 21.747 M260.406 100.241 C 269.202 106.215,274.364 119.863,268.858 122.587 C 266.654 123.678,266.066 123.187,265.231 119.561 C 263.745 113.109,261.307 109.565,254.645 104.180 C 249.740 100.214,255.036 96.594,260.406 100.241 M247.393 105.617 C 252.276 108.074,256.758 112.048,259.222 116.103 C 262.802 121.996,262.033 131.081,257.955 131.081 C 256.709 131.081,256.463 130.429,256.129 126.255 C 255.491 118.270,253.752 116.120,241.833 108.580 C 238.260 106.319,243.373 103.594,247.393 105.617 M243.229 115.135 C 247.751 117.648,250.321 121.110,251.838 126.731 C 252.863 130.527,252.462 130.898,243.784 134.181 C 235.817 137.195,224.128 144.378,221.459 147.900 C 214.789 156.702,213.313 159.649,211.355 168.074 C 210.624 171.220,210.659 172.389,211.664 178.228 C 212.807 184.866,212.686 185.021,208.144 182.748 C 204.025 180.686,203.831 180.050,205.223 173.176 C 206.051 169.086,207.082 165.910,208.557 162.901 C 208.984 162.030,209.534 160.481,209.780 159.459 C 210.462 156.625,212.243 153.378,214.719 150.451 C 220.075 144.120,219.429 139.086,213.633 141.991 C 207.944 144.843,207.206 143.490,212.331 139.604 C 217.859 135.411,226.672 125.874,231.044 119.353 C 235.600 112.556,237.442 111.919,243.229 115.135 M149.724 151.061 C 150.037 151.221,151.074 151.351,152.027 151.351 C 155.264 151.351,155.754 152.116,153.727 154.006 C 152.281 155.354,152.114 155.462,145.270 159.497 C 142.762 160.975,138.125 163.998,134.966 166.213 C 125.520 172.837,116.005 179.142,110.980 182.107 C 104.830 185.735,99.333 189.120,95.423 191.688 C 91.724 194.118,85.139 197.982,79.922 200.784 C 77.874 201.883,72.979 204.878,69.044 207.438 C 65.108 209.998,56.743 214.943,50.454 218.427 C 44.166 221.911,38.108 225.402,36.993 226.184 C 33.915 228.344,33.282 228.589,27.951 229.691 C 21.252 231.075,17.994 231.366,17.703 230.608 C 17.093 229.020,25.153 224.772,28.025 225.167 C 29.429 225.360,30.296 225.196,33.512 224.128 C 38.724 222.397,39.245 221.753,36.663 220.230 C 33.856 218.574,36.262 216.395,41.216 216.108 C 43.865 215.954,51.275 214.072,51.971 213.376 C 52.596 212.752,51.706 211.149,50.735 211.149 C 48.772 211.149,48.954 209.487,51.098 207.846 C 55.426 204.533,58.709 202.945,61.816 202.662 C 63.400 202.517,65.608 202.114,66.723 201.767 L 68.750 201.135 68.750 199.011 C 68.750 197.012,68.817 196.831,69.890 195.934 C 71.845 194.301,74.862 192.858,75.818 193.098 C 78.213 193.699,81.757 191.725,81.757 189.790 C 81.757 187.538,82.884 186.547,89.300 183.155 C 92.418 181.506,92.226 181.532,93.380 182.601 C 94.590 183.723,94.606 183.720,99.212 181.641 C 103.618 179.653,104.074 179.110,102.556 177.670 C 102.086 177.223,101.698 176.678,101.695 176.458 C 101.687 175.877,107.249 171.774,109.690 170.562 L 111.779 169.524 113.272 170.270 L 114.765 171.016 120.811 169.280 C 128.443 167.090,129.659 166.642,130.070 165.873 C 130.980 164.174,129.230 163.764,124.920 164.665 C 119.796 165.737,120.128 164.725,126.236 160.646 C 133.984 155.473,134.386 155.296,137.882 155.513 C 141.178 155.718,142.230 155.314,142.230 153.844 C 142.230 152.488,142.797 151.785,144.337 151.227 C 146.745 150.355,148.250 150.309,149.724 151.061 M207.550 151.074 C 207.826 151.515,207.593 152.266,206.501 154.452 C 205.157 157.142,203.083 162.277,200.999 168.074 C 199.762 171.517,198.990 176.286,198.988 180.495 C 198.986 184.711,199.224 184.455,188.851 191.415 C 184.485 194.344,179.392 197.834,177.534 199.170 C 175.676 200.505,171.267 203.393,167.736 205.587 C 164.206 207.782,158.733 211.270,155.574 213.340 C 139.413 223.929,130.016 229.777,126.858 231.211 C 123.884 232.562,117.974 235.915,113.309 238.899 C 111.060 240.338,105.587 243.554,101.147 246.046 C 96.707 248.537,91.554 251.515,89.696 252.664 C 84.453 255.904,81.125 256.770,78.725 255.517 C 78.256 255.272,77.689 255.071,77.466 255.070 C 76.717 255.066,71.553 252.650,69.635 251.407 C 68.591 250.730,67.499 250.022,67.209 249.835 C 66.919 249.647,64.031 247.734,60.790 245.584 C 53.978 241.063,48.339 237.573,43.074 234.618 C 38.519 232.061,38.324 231.626,40.972 229.932 C 45.200 227.227,51.903 223.213,53.731 222.290 C 57.296 220.490,64.235 216.374,72.804 210.976 C 77.449 208.049,83.226 204.516,85.642 203.123 C 88.057 201.730,92.770 198.790,96.115 196.588 C 99.459 194.387,103.260 191.948,104.561 191.167 C 113.367 185.886,121.582 180.490,140.541 167.534 C 144.907 164.550,150.000 161.340,151.858 160.401 C 153.716 159.462,156.529 157.973,158.108 157.091 C 163.969 153.819,171.644 152.425,186.149 151.995 C 193.229 151.785,198.260 151.466,201.182 151.043 C 206.291 150.302,207.070 150.306,207.550 151.074 M208.108 188.737 C 215.398 192.104,215.156 192.426,195.517 205.504 C 177.253 217.667,178.581 216.956,176.781 215.541 C 174.437 213.696,172.228 215.156,171.821 218.818 C 171.592 220.879,171.173 221.448,169.030 222.608 C 166.519 223.969,166.038 223.935,165.224 222.339 C 163.668 219.289,161.765 220.667,160.447 225.799 C 159.905 227.911,158.726 229.293,156.644 230.258 C 154.576 231.216,154.281 231.103,153.687 229.124 C 152.573 225.414,149.483 228.011,147.785 234.083 C 147.056 236.694,146.079 237.745,142.374 239.907 C 136.654 243.245,135.506 242.876,137.342 238.285 C 138.011 236.614,138.119 235.999,137.837 235.472 C 136.998 233.904,134.636 235.345,133.834 237.914 C 133.644 238.522,133.017 240.575,132.442 242.475 C 131.262 246.369,131.241 246.392,126.457 249.148 C 122.976 251.154,121.811 250.439,123.668 247.435 C 124.566 245.983,124.122 244.932,122.611 244.932 C 120.335 244.932,119.145 246.534,118.559 250.389 C 117.997 254.084,117.738 254.542,115.251 256.240 C 112.163 258.348,111.454 258.241,112.191 255.781 C 112.775 253.830,112.396 252.703,111.155 252.703 C 109.449 252.703,107.860 254.998,106.888 258.869 C 105.852 262.992,104.044 265.015,100.121 266.439 C 96.972 267.582,96.461 266.936,97.845 263.557 C 98.477 262.011,98.455 259.831,97.803 259.581 C 96.022 258.898,93.957 262.195,92.506 268.040 C 91.452 272.281,89.848 274.551,86.915 275.950 C 84.863 276.928,84.847 276.231,86.799 270.879 C 89.312 263.985,89.011 261.235,86.030 263.852 C 84.529 265.170,80.851 274.224,80.444 277.603 C 80.304 278.768,80.124 279.769,80.044 279.827 C 77.602 281.623,75.339 281.361,75.337 279.283 C 75.336 278.078,83.055 262.459,84.243 261.263 C 84.827 260.676,87.584 258.945,90.372 257.417 C 93.159 255.889,97.188 253.574,99.324 252.272 C 112.772 244.076,126.580 235.920,130.912 233.613 C 132.956 232.525,136.073 230.532,137.838 229.185 C 139.603 227.837,144.696 224.470,149.155 221.702 C 157.286 216.656,162.878 213.135,172.635 206.917 C 175.515 205.082,179.620 202.269,181.757 200.668 C 186.655 196.996,199.498 188.411,200.845 187.909 C 203.293 186.996,204.683 187.155,208.108 188.737 M35.642 236.529 C 38.586 237.827,43.434 240.532,48.986 243.976 C 50.938 245.186,54.586 247.439,57.095 248.982 C 59.603 250.526,62.772 252.564,64.136 253.513 C 70.819 258.157,72.887 259.508,75.071 260.656 C 77.351 261.854,77.434 261.941,77.265 262.961 C 77.007 264.515,69.862 279.775,69.199 280.187 C 68.757 280.461,67.635 280.037,64.029 278.232 C 59.382 275.907,57.464 274.573,49.154 267.891 C 43.659 263.472,38.060 259.679,31.802 256.135 C 29.132 254.623,25.484 252.345,23.694 251.073 C 21.904 249.801,19.708 248.317,18.815 247.776 C 10.744 242.879,8.343 240.814,9.093 239.412 C 10.952 235.939,29.688 233.904,35.642 236.529 " stroke="none" fill="#000000" fill-rule="evenodd"></path></g></svg>