<svg id="svg" version="1.1" xmlns="http://www.w3.org/2000/svg" xmlns:xlink="http://www.w3.org/1999/xlink" width="400" height="402.94117647058823" viewBox="0, 0, 400,402.94117647058823"><g id="svgg"><path id="path0" d="M313.235 21.324 C 313.235 22.537,312.574 23.529,311.765 23.529 C 310.956 23.529,310.294 24.705,310.294 26.141 C 310.294 27.577,307.445 33.368,303.963 39.009 C 300.482 44.649,296.714 51.581,295.591 54.412 C 294.468 57.243,293.123 59.890,292.601 60.294 C 292.079 60.699,289.850 65.993,287.647 72.059 C 285.443 78.125,283.020 84.237,282.262 85.642 C 281.503 87.046,280.882 89.260,280.882 90.562 C 280.882 91.863,279.537 94.817,277.894 97.126 C 276.250 99.434,273.223 104.996,271.168 109.485 L 267.431 117.647 255.407 117.878 C 228.489 118.394,218.316 118.372,217.046 117.794 C 215.726 117.192,196.230 117.110,193.382 117.694 C 192.574 117.860,188.438 117.917,184.191 117.821 L 176.471 117.647 176.471 106.525 C 176.471 95.431,174.991 91.012,165.586 74.022 C 160.638 65.082,139.860 47.953,131.900 46.252 C 129.318 45.700,126.544 44.732,125.735 44.101 C 122.590 41.645,111.872 39.607,97.794 38.787 C 78.807 37.680,72.733 39.505,47.806 53.802 C 36.550 60.258,22.116 77.135,16.106 90.868 C 14.439 94.677,12.495 99.118,11.787 100.735 C 6.483 112.848,5.834 139.650,10.593 150.000 C 11.894 152.831,13.362 156.955,13.854 159.164 C 14.346 161.374,16.724 165.432,19.139 168.182 C 21.554 170.932,23.567 173.757,23.614 174.459 C 23.708 175.876,40.669 189.275,45.920 192.081 C 49.194 193.830,54.790 196.223,64.311 199.947 C 69.634 202.028,95.616 202.815,101.807 201.083 C 105.359 200.089,106.229 200.596,109.379 205.495 C 116.613 216.742,125.559 224.599,139.706 232.130 C 143.346 234.067,147.316 236.464,148.529 237.456 C 152.002 240.294,154.976 240.992,167.981 242.021 C 174.673 242.551,180.609 243.257,181.173 243.590 C 182.033 244.098,181.746 288.216,180.678 319.717 C 180.283 331.343,160.034 351.277,151.103 348.831 C 150.496 348.665,150.000 349.073,150.000 349.738 C 150.000 350.403,146.526 352.492,142.279 354.380 C 138.033 356.269,132.739 359.079,130.515 360.625 C 128.290 362.171,126.471 362.999,126.471 362.465 C 126.471 358.029,103.071 375.230,102.988 379.728 C 102.856 386.852,165.781 388.491,234.559 383.156 C 236.985 382.968,247.535 382.282,258.003 381.633 C 290.453 379.619,293.263 367.323,264.589 352.805 C 261.014 350.995,257.096 348.709,255.882 347.725 C 254.669 346.741,252.022 345.448,250.000 344.852 C 240.757 342.127,216.262 329.057,215.419 326.400 C 213.351 319.886,212.987 313.854,212.733 281.872 C 212.426 243.205,211.719 246.011,222.072 244.827 C 226.485 244.323,230.769 243.415,231.592 242.810 C 232.415 242.205,234.851 241.602,237.005 241.470 C 253.552 240.458,284.601 220.007,291.475 205.593 C 298.709 190.426,299.561 188.093,305.071 168.382 C 310.485 149.020,312.505 122.210,308.827 118.533 C 307.994 117.700,303.350 117.022,298.509 117.028 C 289.611 117.038,287.483 115.440,291.716 111.927 C 292.822 111.010,294.856 106.668,296.236 102.278 C 297.617 97.889,299.690 93.514,300.844 92.557 C 301.997 91.600,302.941 90.199,302.941 89.445 C 302.941 86.993,314.811 61.584,319.528 53.939 C 322.566 49.015,323.231 48.603,324.900 50.614 C 325.947 51.876,327.334 52.581,327.982 52.181 C 328.630 51.780,329.383 52.054,329.654 52.790 C 329.925 53.525,336.103 57.245,343.382 61.056 C 364.100 71.903,365.262 72.598,368.382 76.016 C 372.060 80.044,379.862 83.208,380.607 80.974 C 380.893 80.115,381.993 79.412,383.051 79.412 C 389.430 79.412,391.194 61.666,385.270 57.097 C 382.830 55.216,378.914 52.174,376.567 50.338 C 374.220 48.502,369.433 45.669,365.929 44.043 C 362.425 42.417,358.260 40.279,356.673 39.293 C 346.835 33.179,342.356 30.820,339.869 30.440 C 338.319 30.203,336.160 29.302,335.070 28.437 C 325.988 21.228,313.235 17.074,313.235 21.324 M338.971 37.783 C 343.015 39.691,347.647 42.000,349.265 42.914 C 350.882 43.829,353.529 45.301,355.147 46.185 C 356.765 47.070,359.246 48.724,360.662 49.860 C 362.077 50.997,363.235 51.485,363.235 50.945 C 363.235 49.810,374.708 56.851,377.646 59.789 C 378.733 60.875,380.236 61.765,380.987 61.765 C 383.070 61.765,382.614 68.198,380.308 71.352 C 378.170 74.275,370.588 72.617,370.588 69.226 C 370.588 67.760,346.188 53.865,345.057 54.688 C 344.710 54.940,343.199 54.066,341.699 52.745 C 340.198 51.424,335.995 48.845,332.358 47.015 C 328.721 45.185,325.016 42.691,324.125 41.472 C 320.664 36.739,309.452 53.413,299.862 77.554 C 297.496 83.508,294.521 89.968,293.250 91.908 C 291.979 93.848,290.786 96.297,290.600 97.350 C 289.514 103.488,280.611 117.647,277.837 117.647 C 275.002 117.647,274.959 117.420,277.056 113.603 C 282.674 103.377,291.401 83.604,291.753 80.302 C 291.967 78.290,292.865 75.775,293.747 74.711 C 294.630 73.648,295.808 70.962,296.365 68.742 C 296.922 66.522,297.835 64.706,298.393 64.706 C 298.952 64.706,300.275 62.311,301.334 59.384 C 302.392 56.456,306.494 48.681,310.450 42.104 C 314.405 35.528,317.643 29.299,317.644 28.262 C 317.646 27.020,320.032 27.731,324.632 30.345 C 328.474 32.528,334.926 35.875,338.971 37.783 M120.588 50.000 C 134.140 53.877,139.371 56.906,151.545 67.928 C 159.895 75.487,168.879 93.341,169.245 103.103 C 169.756 116.761,169.493 117.647,164.922 117.647 C 160.782 117.647,160.735 117.550,161.421 110.416 C 163.388 89.945,140.013 60.984,119.118 58.001 C 117.904 57.828,112.120 56.816,106.264 55.752 C 78.485 50.706,45.749 68.922,31.456 97.380 C 6.795 146.483,27.724 181.791,83.088 184.484 C 97.712 185.196,97.804 185.224,99.580 189.521 C 101.044 193.061,100.998 193.984,99.327 194.625 C 95.888 195.945,70.082 194.678,66.176 192.997 C 61.915 191.164,56.618 189.390,56.618 189.795 C 56.618 191.103,42.600 181.594,35.890 175.735 C 11.704 154.617,7.596 125.358,24.017 91.176 C 28.386 82.081,47.167 60.385,50.735 60.311 C 51.544 60.294,54.498 58.133,57.299 55.508 C 60.100 52.883,62.747 50.882,63.181 51.061 C 64.496 51.603,75.619 48.337,77.387 46.890 C 78.296 46.146,80.049 45.925,81.283 46.398 C 82.516 46.872,83.874 46.696,84.299 46.008 C 85.529 44.018,108.513 46.546,120.588 50.000 M107.777 60.467 L 117.760 62.049 114.203 68.157 C 109.502 76.229,99.698 95.666,94.936 106.353 C 89.823 117.826,86.899 117.325,83.568 104.402 C 82.214 99.150,79.102 88.287,76.652 80.262 C 71.714 64.085,71.730 63.864,77.971 62.493 C 80.395 61.961,82.091 61.061,81.740 60.492 C 80.687 58.788,97.086 58.772,107.777 60.467 M129.412 66.583 C 146.816 74.601,165.839 110.758,155.890 116.907 C 153.311 118.501,106.091 118.180,104.113 116.555 C 103.064 115.693,100.806 114.759,99.095 114.479 C 96.020 113.977,106.005 89.130,115.108 74.632 C 116.504 72.408,118.669 68.913,119.918 66.865 C 121.166 64.817,122.655 63.382,123.226 63.676 C 123.797 63.971,126.581 65.278,129.412 66.583 M70.445 73.897 C 71.431 77.335,73.799 85.110,75.708 91.176 C 77.616 97.243,79.635 104.688,80.194 107.721 L 81.210 113.235 54.511 113.235 L 27.812 113.235 35.339 98.582 C 40.864 87.825,44.178 83.117,47.800 80.879 C 50.513 79.202,52.945 77.274,53.205 76.594 C 53.894 74.788,64.812 67.647,66.884 67.647 C 67.857 67.647,69.459 70.460,70.445 73.897 M98.309 74.265 C 98.188 77.096,98.022 80.184,97.941 81.127 C 97.860 82.071,98.621 83.119,99.632 83.456 C 100.942 83.893,101.471 81.920,101.471 76.593 C 101.471 68.252,98.655 66.179,98.309 74.265 M89.706 76.228 C 89.706 82.938,90.859 86.765,92.881 86.765 C 94.977 86.765,93.700 71.660,91.544 70.949 C 90.279 70.532,89.706 72.177,89.706 76.228 M55.206 88.139 C 54.277 89.643,63.207 97.059,65.948 97.059 C 69.057 97.059,67.705 94.312,62.729 90.516 C 57.312 86.385,56.458 86.115,55.206 88.139 M127.574 94.593 C 125.349 96.415,123.529 98.376,123.529 98.952 C 123.529 102.350,134.277 97.418,135.860 93.294 C 137.112 90.031,132.206 90.800,127.574 94.593 M50.000 99.931 C 50.000 101.266,58.978 104.386,62.868 104.404 C 66.121 104.418,64.825 101.443,60.934 99.964 C 56.115 98.132,50.000 98.113,50.000 99.931 M136.419 102.715 C 130.664 105.264,127.927 108.824,131.722 108.824 C 134.921 108.824,145.588 103.144,145.588 101.441 C 145.588 99.467,142.913 99.839,136.419 102.715 M84.668 121.233 C 85.482 124.478,65.344 168.180,60.151 174.438 C 55.518 180.019,33.736 163.746,27.569 150.096 C 24.762 143.883,24.615 123.310,27.346 118.891 C 27.769 118.207,40.637 117.647,55.941 117.647 L 83.767 117.647 84.668 121.233 M242.647 124.874 C 258.419 124.896,277.610 124.639,285.294 124.302 C 305.021 123.437,304.604 123.192,303.701 135.138 C 301.417 165.344,289.052 200.860,276.628 212.904 C 267.511 221.741,252.198 230.882,246.509 230.882 C 245.194 230.882,244.118 231.393,244.118 232.018 C 244.118 233.147,230.644 236.232,217.220 238.174 C 205.645 239.849,205.538 240.141,205.773 269.328 C 206.089 308.560,206.949 326.138,208.654 328.234 C 214.241 335.100,217.467 338.235,218.946 338.235 C 219.879 338.235,224.104 340.051,228.336 342.270 C 232.567 344.489,237.212 346.309,238.657 346.314 C 240.102 346.319,241.756 347.042,242.333 347.920 C 242.910 348.798,247.131 351.217,251.714 353.296 C 262.104 358.011,276.834 368.757,276.071 371.066 C 274.865 374.715,238.104 377.164,161.417 378.703 C 117.406 379.586,109.553 378.938,116.856 375.030 C 118.909 373.931,120.588 372.482,120.588 371.810 C 120.588 371.138,121.352 370.588,122.285 370.588 C 124.277 370.588,138.211 364.353,145.588 360.160 C 148.419 358.551,155.037 355.224,160.294 352.767 C 182.835 342.233,186.442 335.105,187.618 298.759 C 189.233 248.865,189.179 241.515,187.175 238.774 C 186.140 237.360,185.294 236.699,185.294 237.306 C 185.294 237.912,184.467 237.887,183.456 237.250 C 182.445 236.612,177.434 235.976,172.320 235.836 C 153.087 235.309,120.749 214.367,113.011 197.426 C 111.441 193.989,109.671 191.176,109.077 191.176 C 104.121 191.176,92.687 145.450,93.817 130.147 L 94.251 124.265 154.111 124.550 C 187.034 124.706,226.875 124.853,242.647 124.874 M86.998 138.940 C 86.553 146.077,91.046 168.320,94.998 178.543 C 96.067 181.309,72.831 181.309,65.622 178.542 C 63.466 177.715,67.106 168.497,75.153 154.412 C 76.770 151.581,80.071 145.129,82.489 140.074 C 87.806 128.956,87.617 129.004,86.998 138.940 M50.313 136.993 C 42.689 141.395,40.614 144.118,44.882 144.118 C 47.325 144.118,58.041 137.750,59.459 135.455 C 61.484 132.179,57.489 132.850,50.313 136.993 M55.515 145.191 C 48.348 150.407,46.804 152.941,50.792 152.941 C 53.679 152.941,65.619 141.894,63.836 140.873 C 63.101 140.452,59.357 142.395,55.515 145.191 M124.289 145.270 C 103.425 145.764,104.018 145.369,106.062 157.408 C 110.785 185.224,144.125 217.854,174.368 224.261 C 190.497 227.677,225.245 227.240,236.165 223.483 C 261.622 214.724,280.056 190.905,288.155 156.306 C 290.318 147.066,289.435 145.218,283.327 146.199 C 270.295 148.292,230.472 148.770,198.386 147.220 C 151.164 144.938,145.088 144.778,124.289 145.270 M205.423 151.502 C 231.133 153.276,252.292 153.280,270.549 151.514 C 287.222 149.902,285.856 148.810,282.594 161.147 C 278.258 177.546,269.608 193.556,259.649 203.615 C 254.810 208.502,251.007 213.046,251.198 213.712 C 251.388 214.379,250.955 214.561,250.236 214.116 C 249.517 213.672,245.364 215.099,241.008 217.287 C 230.767 222.431,190.187 223.854,173.632 219.650 C 143.627 212.030,109.077 175.902,108.841 151.900 C 108.811 148.807,163.124 148.583,205.423 151.502 M77.941 167.770 C 77.941 175.432,81.418 174.924,82.074 167.166 C 82.421 163.057,81.981 161.765,80.236 161.765 C 78.531 161.765,77.941 163.309,77.941 167.770 M252.629 180.148 C 250.280 184.982,249.852 187.205,251.039 188.392 C 252.527 189.880,258.824 178.895,258.824 174.813 C 258.824 171.374,255.501 174.235,252.629 180.148 M143.445 176.369 C 142.134 178.491,156.082 186.765,160.971 186.765 C 165.149 186.765,163.291 184.438,156.250 180.854 C 145.848 175.558,144.285 175.011,143.445 176.369 M133.824 182.097 C 133.824 185.222,146.392 193.413,155.515 196.234 C 162.650 198.440,158.688 192.934,150.851 189.753 C 146.466 187.973,141.732 185.249,140.329 183.700 C 137.743 180.842,133.824 179.876,133.824 182.097 M169.338 363.245 C 163.135 367.738,161.568 370.588,165.299 370.588 C 167.580 370.588,177.941 361.929,177.941 360.024 C 177.941 357.856,175.531 358.758,169.338 363.245 M188.971 360.294 C 188.471 361.103,188.597 361.791,189.251 361.824 C 189.906 361.856,188.621 362.870,186.397 364.076 C 182.702 366.081,180.721 370.588,183.535 370.588 C 185.552 370.588,194.228 360.894,193.163 359.830 C 191.730 358.397,190.027 358.585,188.971 360.294 " stroke="none" fill="#000000" fill-rule="evenodd"></path></g></svg>