<svg id="svg" version="1.1" xmlns="http://www.w3.org/2000/svg" xmlns:xlink="http://www.w3.org/1999/xlink" width="400" height="444.5475638051044" viewBox="0, 0, 400,444.5475638051044"><g id="svgg"><path id="path0" d="M169.374 18.615 C 166.821 19.109,161.392 20.154,157.309 20.937 C 153.225 21.720,142.367 24.188,133.179 26.423 C 116.024 30.594,104.555 32.951,95.592 34.145 L 90.487 34.825 90.180 42.581 C 89.993 47.312,90.265 50.729,90.877 51.341 C 92.640 53.104,92.203 121.572,90.352 133.524 C 88.318 146.652,88.337 160.820,90.402 171.230 C 91.714 177.843,91.929 181.814,91.435 190.298 C 90.436 207.463,87.981 206.819,154.679 206.911 L 190.101 206.961 191.106 211.647 C 191.659 214.224,192.111 216.702,192.111 217.153 C 192.111 217.606,183.902 217.902,173.782 217.813 C 154.278 217.642,145.514 218.748,134.003 222.833 C 130.997 223.899,126.659 225.318,124.362 225.986 C 118.957 227.559,104.021 232.746,101.624 233.884 C 100.603 234.368,98.515 235.212,96.984 235.760 C 95.452 236.307,92.013 238.071,89.341 239.679 L 84.483 242.603 85.040 247.348 L 85.598 252.093 80.402 253.256 C 77.544 253.895,74.980 254.783,74.705 255.228 C 74.428 255.677,72.946 255.599,71.381 255.053 C 67.853 253.823,62.513 254.632,60.172 256.751 C 58.482 258.280,58.247 258.274,55.457 256.626 C 46.765 251.491,34.224 254.011,32.279 261.282 C 31.664 263.582,30.615 265.429,29.924 265.429 C 24.963 265.429,21.605 270.103,20.553 278.473 C 19.983 283.004,19.774 283.302,16.326 284.485 C 10.412 286.514,8.820 288.754,8.796 295.079 C 8.783 298.832,8.296 301.079,7.245 302.245 C 2.834 307.138,4.942 316.391,12.303 324.448 C 16.919 329.501,17.153 330.000,16.860 334.147 C 16.153 344.158,24.947 352.130,42.459 357.354 C 47.438 358.839,47.905 357.756,37.323 369.253 C 15.910 392.515,8.345 401.855,8.365 405.006 C 8.400 410.570,15.578 436.039,17.900 438.836 C 21.060 442.644,29.068 441.349,30.198 436.848 C 31.045 433.472,41.764 433.040,125.943 432.990 L 198.523 432.947 199.044 435.023 C 200.010 438.870,203.366 440.216,207.682 438.489 L 211.404 437.000 211.750 430.160 C 212.181 421.613,210.602 423.329,240.009 399.458 C 252.827 389.055,266.700 377.616,270.840 374.039 C 277.821 368.006,278.437 367.667,279.344 369.361 C 281.712 373.785,286.769 373.872,289.016 369.526 C 292.524 362.743,289.334 331.323,285.137 331.323 C 284.282 331.323,284.001 331.867,284.366 332.817 C 284.853 334.086,284.412 334.223,281.449 333.722 C 271.332 332.010,78.673 329.696,69.867 331.181 C 68.548 331.403,67.881 332.113,68.011 333.154 C 68.124 334.066,64.689 338.812,60.191 343.957 C 48.098 357.788,49.527 356.951,42.113 354.556 C 26.161 349.402,19.490 343.550,19.490 334.712 L 19.490 331.546 25.198 331.133 C 32.383 330.613,35.267 327.903,35.267 321.670 C 35.267 311.903,26.614 312.384,21.275 322.447 C 18.546 327.593,18.666 327.586,14.401 322.865 C 8.136 315.930,5.979 308.741,8.909 304.558 L 10.394 302.438 13.078 306.088 C 19.501 314.822,28.325 313.633,30.255 303.774 C 31.545 297.185,26.275 295.107,13.458 297.152 C 11.160 297.518,10.417 294.031,12.117 290.855 C 14.286 286.802,21.346 284.758,21.346 288.183 C 21.346 290.215,28.071 296.773,30.878 297.477 C 41.425 300.125,35.656 286.910,24.826 283.615 C 21.154 282.498,23.279 271.178,27.524 269.244 C 31.270 267.537,32.053 268.000,34.203 273.189 C 37.438 280.992,42.852 284.726,46.773 281.856 C 50.345 279.241,46.090 272.130,38.562 268.137 C 29.598 263.382,35.653 255.054,46.832 256.762 C 53.367 257.761,55.983 259.576,55.074 262.480 C 52.224 271.590,55.739 283.037,61.858 284.573 C 66.762 285.804,67.221 275.628,62.707 265.769 L 60.219 260.334 62.289 258.659 C 63.625 257.576,65.519 257.082,67.640 257.262 L 70.923 257.541 70.657 262.467 C 70.246 270.058,73.756 274.210,77.278 270.302 C 79.948 267.339,80.253 263.694,78.078 260.752 C 75.572 257.363,75.554 257.449,79.025 256.239 C 84.478 254.338,86.310 254.840,86.321 258.237 C 86.465 299.483,88.630 308.274,98.698 308.496 C 103.485 308.601,107.657 306.625,107.657 304.252 C 107.657 302.618,110.714 302.552,186.931 302.552 C 230.532 302.552,266.762 302.343,267.441 302.087 C 268.150 301.820,269.354 302.814,270.263 304.415 C 273.478 310.080,279.904 310.168,283.657 304.598 C 287.462 298.953,309.258 286.732,311.821 288.808 C 314.235 290.763,316.806 290.977,318.046 289.327 C 319.603 287.256,321.907 280.304,321.184 279.858 C 320.798 279.619,320.183 271.785,319.818 262.450 C 318.861 237.956,317.174 220.960,315.603 219.990 C 313.706 218.817,292.348 217.773,283.643 218.428 C 279.496 218.740,265.719 219.265,253.029 219.595 C 240.339 219.924,229.272 220.244,228.435 220.306 C 227.599 220.367,226.956 219.896,227.007 219.258 C 227.058 218.619,227.162 215.656,227.239 212.672 L 227.378 207.247 257.773 206.693 C 296.748 205.982,307.193 204.548,307.193 199.905 C 307.193 199.111,309.216 196.093,311.690 193.198 C 328.146 173.939,330.416 167.700,330.975 140.187 L 331.342 122.137 339.596 113.721 C 351.309 101.777,351.411 100.417,343.000 68.305 C 340.607 59.167,338.049 50.531,337.316 49.113 C 335.760 46.104,335.355 45.959,324.362 44.481 L 316.009 43.358 313.502 38.139 C 308.643 28.029,303.912 23.766,295.849 22.231 C 278.929 19.012,181.684 16.231,169.374 18.615 M243.619 20.864 C 295.511 23.703,299.761 24.287,291.881 27.493 C 288.897 28.707,285.762 30.328,284.914 31.095 C 283.567 32.314,273.206 32.477,202.244 32.392 L 121.114 32.295 131.323 29.633 C 170.455 19.430,189.806 17.919,243.619 20.864 M305.577 30.858 C 310.052 36.464,312.942 41.809,312.343 43.371 C 312.060 44.108,312.634 45.405,313.619 46.253 C 319.858 51.628,329.702 104.397,327.421 120.241 C 327.031 122.957,327.124 124.952,327.650 125.135 C 330.242 126.038,327.962 162.057,324.855 169.307 C 320.480 179.511,308.618 194.079,307.797 190.255 C 306.546 184.434,304.466 171.645,303.948 166.589 C 303.634 163.527,302.553 155.181,301.547 148.043 C 300.541 140.906,299.098 126.706,298.339 116.489 C 295.265 75.087,290.710 39.958,287.681 34.298 C 286.972 32.972,287.706 32.327,292.140 30.382 C 302.062 26.029,301.711 26.016,305.577 30.858 M285.634 35.724 C 287.449 37.167,295.004 98.901,296.533 124.789 C 296.864 130.383,297.745 138.944,298.493 143.814 C 299.240 148.684,300.460 157.889,301.204 164.269 C 301.948 170.650,303.244 180.154,304.084 185.390 C 305.508 194.270,305.506 195.026,304.059 196.625 C 303.206 197.568,302.751 198.975,303.049 199.751 C 304.442 203.380,275.311 204.386,179.582 204.013 C 83.503 203.639,92.122 205.012,93.969 190.373 C 94.895 183.041,94.803 180.893,93.220 172.909 C 91.001 161.713,90.969 145.938,93.138 131.059 C 94.973 118.460,95.420 48.460,93.676 46.715 C 93.133 46.172,92.820 43.896,92.980 41.657 L 93.271 37.587 97.912 36.947 C 100.464 36.595,111.740 36.017,122.970 35.662 C 134.200 35.307,143.566 34.859,143.785 34.667 C 144.191 34.310,285.177 35.360,285.634 35.724 M277.494 42.227 C 275.240 44.524,273.813 46.404,274.324 46.404 C 274.834 46.404,277.096 44.524,279.350 42.227 C 281.605 39.930,283.031 38.051,282.521 38.051 C 282.011 38.051,279.749 39.930,277.494 42.227 M278.422 46.868 C 277.227 48.140,276.458 49.389,276.713 49.645 C 276.969 49.900,278.155 49.068,279.350 47.796 C 280.545 46.524,281.314 45.274,281.059 45.019 C 280.804 44.764,279.617 45.596,278.422 46.868 M119.164 47.245 C 107.429 52.574,99.150 80.701,103.977 98.840 C 104.394 100.407,104.496 97.141,104.211 91.371 C 103.169 70.289,109.357 53.502,120.085 48.309 C 126.574 45.167,125.773 44.243,119.164 47.245 M210.673 47.064 C 205.824 47.172,190.580 47.740,176.798 48.325 C 163.016 48.911,145.601 49.502,138.097 49.638 C 109.571 50.156,102.529 65.215,109.229 111.369 C 110.068 117.144,110.886 132.090,111.238 148.056 C 112.012 183.112,114.244 187.761,132.715 192.789 C 150.261 197.566,260.141 193.320,269.555 187.502 C 278.576 181.927,281.566 160.869,276.965 135.313 C 276.097 130.490,275.242 116.159,274.678 96.984 C 273.492 56.595,273.162 54.992,265.217 50.937 C 256.423 46.448,252.093 46.141,210.673 47.064 M330.028 47.916 C 335.363 48.645,335.229 48.348,341.445 73.149 C 348.263 100.348,348.039 102.378,337.150 112.217 L 330.858 117.901 330.636 112.083 C 329.869 91.977,324.027 62.681,317.838 47.900 C 317.162 46.286,317.443 46.195,321.429 46.740 C 323.808 47.066,327.677 47.595,330.028 47.916 M257.117 50.594 C 270.938 55.471,270.906 55.375,271.915 95.150 C 272.437 115.762,273.201 129.459,274.114 134.593 C 276.090 145.708,276.982 168.533,275.640 173.650 C 272.162 186.918,267.979 188.368,227.842 190.222 C 216.613 190.740,203.248 191.386,198.144 191.657 C 141.061 194.683,119.814 190.474,114.913 175.170 C 114.349 173.409,114.002 163.809,114.079 152.054 C 114.188 135.429,113.789 128.524,111.775 112.147 C 107.624 78.402,110.344 61.336,120.898 54.920 C 124.176 52.927,148.535 51.524,203.712 50.150 C 248.592 49.032,252.789 49.067,257.117 50.594 M241.763 55.684 C 242.079 56.195,243.878 56.614,245.762 56.616 C 250.592 56.621,254.777 59.521,257.761 64.931 C 261.067 70.925,262.470 71.029,259.443 65.057 C 256.549 59.346,253.616 57.019,247.712 55.753 C 241.959 54.519,241.037 54.509,241.763 55.684 M122.409 62.488 C 119.456 63.813,116.937 65.848,116.937 66.907 C 116.937 67.340,118.347 66.766,120.070 65.633 C 121.794 64.500,123.986 63.076,124.943 62.468 C 127.161 61.057,125.568 61.070,122.409 62.488 M328.306 65.968 C 326.818 66.835,325.980 69.606,327.207 69.606 C 328.697 69.606,331.323 67.512,331.323 66.325 C 331.323 64.743,330.563 64.653,328.306 65.968 M329.466 76.102 C 329.466 78.206,330.429 78.481,332.065 76.845 C 333.701 75.208,333.426 74.246,331.323 74.246 C 330.085 74.246,329.466 74.865,329.466 76.102 M303.842 78.355 C 302.708 81.310,303.892 83.985,306.464 84.281 C 309.411 84.621,311.064 80.851,309.039 78.410 C 307.583 76.656,304.506 76.623,303.842 78.355 M307.950 81.046 C 308.161 82.822,307.823 83.527,306.761 83.527 C 305.004 83.527,303.981 81.338,304.774 79.273 C 305.612 77.088,307.614 78.205,307.950 81.046 M331.391 83.908 C 330.615 84.844,330.594 85.396,331.318 85.844 C 332.549 86.605,335.219 84.576,334.506 83.422 C 333.770 82.231,332.635 82.409,331.391 83.908 M314.711 88.518 C 313.397 90.101,314.744 94.158,316.852 94.966 C 319.120 95.837,320.667 92.192,319.195 89.443 C 317.865 86.957,316.278 86.630,314.711 88.518 M318.329 91.493 C 318.329 94.400,316.150 94.082,315.713 91.111 C 315.516 89.772,315.905 89.095,316.873 89.095 C 317.820 89.095,318.329 89.933,318.329 91.493 M302.243 91.570 C 300.169 93.644,303.738 99.859,306.413 98.832 C 307.252 98.511,308.186 97.337,308.489 96.224 C 309.308 93.212,304.318 89.494,302.243 91.570 M307.193 95.624 C 307.193 96.627,306.581 97.448,305.833 97.448 C 304.231 97.448,302.217 94.100,303.030 92.786 C 303.930 91.329,307.193 93.554,307.193 95.624 M310.420 103.382 C 308.586 106.181,309.263 107.657,312.381 107.657 C 314.978 107.657,316.296 105.341,314.931 103.177 C 313.451 100.832,312.049 100.895,310.420 103.382 M314.153 104.937 C 314.153 105.653,313.422 106.380,312.529 106.552 C 310.929 106.860,310.268 104.891,311.543 103.616 C 312.516 102.643,314.153 103.472,314.153 104.937 M147.564 113.324 C 141.374 117.844,137.355 121.600,137.355 122.861 C 137.355 123.377,138.712 122.523,140.371 120.964 C 142.030 119.406,145.789 116.350,148.724 114.174 C 151.659 111.998,154.060 110.059,154.060 109.865 C 154.060 108.938,152.245 109.904,147.564 113.324 M152.538 119.159 C 146.995 123.444,140.998 128.535,139.211 130.473 L 135.963 133.996 139.675 131.023 C 141.717 129.388,148.086 124.446,153.828 120.040 C 159.571 115.634,164.269 111.881,164.269 111.699 C 164.269 110.486,161.393 112.315,152.538 119.159 M150.962 131.432 C 149.513 132.217,148.509 133.041,148.731 133.263 C 149.205 133.737,155.916 131.046,155.916 130.382 C 155.916 129.518,153.580 130.014,150.962 131.432 M265.803 155.452 C 265.889 162.531,265.708 163.213,261.925 170.070 C 257.807 177.533,257.633 180.241,261.717 173.311 C 266.913 164.493,268.424 157.094,266.406 150.348 C 265.977 148.912,265.747 150.858,265.803 155.452 M106.869 164.306 C 106.436 191.635,115.065 198.608,149.318 198.608 C 163.945 198.608,161.980 198.016,144.780 197.240 C 113.961 195.850,109.444 191.951,107.659 165.197 L 107.009 155.452 106.869 164.306 M122.376 162.877 C 120.586 165.673,125.334 178.190,128.185 178.190 C 128.686 178.190,127.933 176.664,126.510 174.798 C 124.746 172.486,123.771 169.901,123.446 166.678 C 123.184 164.077,122.703 162.367,122.376 162.877 M282.367 184.653 C 279.692 188.044,279.713 191.256,282.426 193.806 C 287.273 198.359,293.271 195.283,293.271 188.245 C 293.271 181.949,286.308 179.655,282.367 184.653 M290.312 188.710 C 290.635 192.538,289.267 193.633,285.381 192.658 C 282.072 191.827,282.210 187.992,285.615 186.148 C 289.109 184.255,289.975 184.728,290.312 188.710 M224.594 214.230 C 224.594 218.229,224.293 221.801,223.926 222.169 C 223.558 222.536,223.245 223.735,223.230 224.834 C 223.190 227.686,218.899 228.398,205.930 227.706 L 195.154 227.130 194.587 219.134 C 194.275 214.735,193.750 210.197,193.421 209.049 L 192.823 206.961 208.708 206.961 L 224.594 206.961 224.594 214.230 M192.338 221.486 C 193.924 222.466,191.820 223.666,188.515 223.666 C 178.934 223.666,166.125 227.413,166.125 230.215 C 166.125 233.725,171.489 235.202,189.791 236.732 C 225.051 239.678,240.371 238.153,240.371 231.695 C 240.371 229.102,236.940 225.697,233.300 224.678 C 228.720 223.397,250.262 221.977,285.151 221.262 C 310.911 220.734,311.199 220.793,304.624 225.252 C 300.135 228.296,293.076 233.593,283.991 240.736 C 274.910 247.875,280.514 247.336,215.777 247.289 C 145.884 247.238,90.385 245.683,88.423 243.720 C 87.293 242.591,106.477 234.875,128.887 227.447 C 141.227 223.356,147.675 221.727,156.381 220.501 C 159.868 220.009,191.344 220.872,192.338 221.486 M315.038 233.643 C 315.368 239.130,316.247 251.321,316.991 260.735 C 317.735 270.148,318.015 278.180,317.613 278.582 C 316.432 279.763,285.653 298.028,285.355 297.724 C 283.385 295.715,280.105 267.881,280.465 256.225 L 280.735 247.484 286.191 242.943 C 297.680 233.382,311.139 223.867,313.368 223.731 C 314.080 223.688,314.639 227.008,315.038 233.643 M192.111 226.859 C 192.111 229.927,192.245 229.971,203.294 230.544 C 216.397 231.223,223.432 230.182,225.921 227.195 C 228.951 223.560,239.443 227.052,239.443 231.695 C 239.443 234.968,224.017 238.354,214.385 237.194 C 212.088 236.918,206.448 236.475,201.852 236.211 C 165.033 234.092,155.955 228.784,183.759 225.630 C 187.587 225.196,191.032 224.785,191.415 224.717 C 191.798 224.650,192.111 225.613,192.111 226.859 M109.977 248.602 C 118.144 249.049,125.661 249.423,126.682 249.433 C 127.703 249.443,157.146 249.748,192.111 250.112 C 233.729 250.545,259.367 250.443,266.347 249.815 C 279.279 248.654,277.848 246.892,278.527 264.810 C 278.839 273.062,279.824 283.911,280.715 288.918 C 281.606 293.925,282.046 298.310,281.694 298.662 C 280.547 299.810,92.808 299.996,91.428 298.850 C 90.087 297.737,89.484 289.853,88.673 262.797 L 88.190 246.708 91.659 247.249 C 93.567 247.546,101.810 248.155,109.977 248.602 M95.371 256.216 C 92.681 257.784,91.667 260.514,92.911 262.839 C 96.825 270.151,104.910 270.051,104.842 262.691 C 104.787 256.828,99.972 253.536,95.371 256.216 M108.353 256.223 C 106.261 257.441,106.238 261.991,108.305 265.492 C 110.213 268.722,114.284 270.413,116.356 268.835 C 123.221 263.608,115.787 251.893,108.353 256.223 M101.564 259.794 C 103.746 262.205,102.713 265.429,99.758 265.429 C 96.846 265.429,94.423 262.044,95.668 259.717 C 96.857 257.497,99.517 257.532,101.564 259.794 M114.993 260.424 C 117.198 263.227,116.261 266.357,113.216 266.357 C 110.734 266.357,108.041 261.170,109.568 259.330 C 111.193 257.372,112.857 257.708,114.993 260.424 M246.404 259.045 C 238.747 259.362,221.363 259.675,207.773 259.741 L 183.063 259.861 182.483 262.761 C 181.201 269.171,183.234 289.830,185.356 291.952 C 186.451 293.047,192.712 293.270,222.108 293.261 C 260.465 293.250,264.807 292.974,264.104 290.594 C 262.865 286.399,261.586 262.405,262.550 261.441 C 265.372 258.619,263.478 258.338,246.404 259.045 M77.030 264.468 C 77.030 268.172,74.470 269.829,73.336 266.858 C 71.697 262.564,72.851 259.151,75.218 261.293 C 76.215 262.195,77.030 263.623,77.030 264.468 M259.386 270.766 C 259.731 275.742,260.332 282.001,260.723 284.675 C 261.654 291.055,265.246 290.487,223.952 290.487 L 187.425 290.487 186.626 288.386 C 186.187 287.230,185.521 280.972,185.146 274.481 L 184.465 262.677 208.010 262.412 C 220.959 262.267,237.676 262.051,245.157 261.932 L 258.759 261.717 259.386 270.766 M61.710 271.361 C 65.320 281.257,63.514 285.604,58.738 278.517 C 55.841 274.218,55.696 264.501,58.529 264.501 C 58.903 264.501,60.334 267.588,61.710 271.361 M216.937 268.909 C 189.615 269.176,182.442 270.286,200.212 271.498 C 211.409 272.261,248.314 271.560,250.812 270.536 C 253.862 269.287,252.442 268.213,248.028 268.431 C 245.603 268.550,231.613 268.765,216.937 268.909 M40.826 272.494 C 45.693 275.715,47.031 280.278,43.107 280.278 C 41.611 280.278,36.195 273.260,36.195 271.322 C 36.195 269.604,36.624 269.713,40.826 272.494 M290.452 274.976 C 287.654 279.180,287.592 279.335,288.927 278.823 C 290.349 278.277,292.912 274.042,292.232 273.361 C 292.000 273.129,291.198 273.855,290.452 274.976 M293.735 279.350 C 292.806 280.377,292.254 281.427,292.509 281.682 C 292.765 281.937,293.734 281.306,294.664 280.278 C 295.593 279.251,296.145 278.202,295.890 277.947 C 295.634 277.692,294.665 278.323,293.735 279.350 M98.027 282.552 C 97.117 283.942,96.547 285.255,96.761 285.469 C 97.465 286.173,100.431 282.267,100.053 281.133 C 99.845 280.508,98.961 281.127,98.027 282.552 M190.912 280.859 C 189.065 282.706,194.088 283.063,221.942 283.063 C 246.048 283.063,252.508 282.815,252.204 281.903 C 251.789 280.655,192.132 279.639,190.912 280.859 M318.329 282.555 C 318.329 284.067,315.969 287.703,314.987 287.703 C 312.668 287.703,312.517 285.575,314.716 283.884 C 316.869 282.229,318.329 281.691,318.329 282.555 M101.392 286.734 C 99.733 288.667,98.376 290.735,98.376 291.328 C 98.376 292.284,101.110 289.447,104.777 284.687 C 107.189 281.555,104.377 283.256,101.392 286.734 M30.255 289.930 C 33.860 293.536,34.464 296.157,31.510 295.385 C 29.850 294.951,26.702 291.519,24.676 287.935 C 23.289 285.481,27.207 286.882,30.255 289.930 M26.047 299.801 C 29.273 301.527,27.912 306.545,23.593 308.845 C 21.105 310.169,16.954 307.759,14.560 303.600 C 12.207 299.514,20.430 296.794,26.047 299.801 M322.881 302.320 C 322.347 303.724,321.074 309.041,320.052 314.137 C 318.065 324.045,316.860 327.713,311.050 341.531 C 301.632 363.930,301.754 364.327,319.258 368.322 C 339.335 372.903,347.883 374.245,357.769 374.365 L 367.047 374.478 371.420 362.877 C 377.033 347.990,387.621 316.102,388.427 311.660 C 389.041 308.276,389.009 308.232,385.475 307.595 C 383.510 307.241,381.485 306.637,380.974 306.254 C 378.581 304.459,342.611 299.790,331.068 299.776 C 324.047 299.768,323.826 299.837,322.881 302.320 M282.135 302.247 C 282.135 305.495,277.185 307.059,273.988 304.820 C 270.702 302.518,271.553 301.624,277.030 301.624 C 279.838 301.624,282.135 301.904,282.135 302.247 M352.668 304.522 C 361.090 305.540,369.601 306.661,371.580 307.015 L 375.178 307.657 369.260 314.005 L 363.341 320.354 351.740 317.982 C 345.360 316.677,336.485 315.094,332.019 314.464 C 323.103 313.205,323.111 313.214,324.494 306.302 C 325.498 301.279,325.712 301.266,352.668 304.522 M104.893 303.920 C 103.324 305.809,98.049 306.652,95.689 305.389 C 92.191 303.516,93.616 302.552,99.882 302.552 C 105.191 302.552,105.873 302.738,104.893 303.920 M385.921 310.480 C 386.818 311.255,366.128 370.083,364.276 372.026 C 361.832 374.589,307.193 364.572,307.193 361.561 C 307.193 359.659,310.798 349.234,315.565 337.355 C 318.023 331.230,320.729 323.800,321.579 320.844 C 322.782 316.659,323.466 315.563,324.671 315.893 C 325.522 316.126,328.306 316.587,330.858 316.917 C 333.411 317.247,341.868 318.781,349.653 320.325 L 363.807 323.133 366.693 320.705 C 368.280 319.370,371.307 316.201,373.420 313.664 C 377.046 309.311,382.857 307.831,385.921 310.480 M32.593 319.593 C 33.990 322.659,31.479 327.389,28.057 328.138 C 26.663 328.444,25.067 328.829,24.510 328.994 C 21.491 329.891,21.105 327.721,23.543 323.560 C 27.251 317.233,30.807 315.674,32.593 319.593 M330.699 328.424 C 325.234 330.985,323.419 334.166,323.499 341.042 C 323.700 358.479,336.734 366.429,352.338 358.632 C 362.825 353.392,367.332 337.211,360.240 330.263 L 357.140 327.225 345.855 326.917 C 336.178 326.653,334.019 326.868,330.699 328.424 M355.418 330.953 C 370.396 336.946,355.779 361.196,338.579 358.889 C 326.699 357.295,320.738 336.507,330.636 331.189 C 336.144 328.229,348.321 328.113,355.418 330.953 M242.435 334.773 C 268.691 335.295,281.491 335.876,282.192 336.578 C 282.952 337.337,279.084 340.766,267.599 349.511 C 247.577 364.758,220.411 385.843,212.047 392.628 C 194.286 407.037,196.073 406.650,145.708 406.988 C 122.993 407.141,96.056 407.531,85.847 407.854 C 55.076 408.829,11.137 406.720,11.137 404.269 C 11.137 402.278,43.206 365.857,68.267 339.386 L 74.252 333.065 138.982 333.534 C 174.584 333.792,221.138 334.349,242.435 334.773 M338.152 337.402 C 332.530 343.024,340.175 350.631,345.997 345.207 C 348.510 342.866,348.521 342.085,346.096 338.161 C 343.770 334.396,341.385 334.169,338.152 337.402 M343.836 339.658 C 345.754 341.778,344.471 344.316,341.480 344.316 C 339.373 344.316,338.221 340.963,339.712 339.167 C 341.191 337.385,341.850 337.464,343.836 339.658 M74.277 343.551 C 67.278 351.074,68.592 354.098,78.398 353.036 C 85.300 352.289,85.347 352.262,89.419 346.902 C 93.117 342.035,93.103 341.996,87.239 341.125 C 84.942 340.783,81.926 340.287,80.536 340.021 C 78.449 339.623,77.360 340.237,74.277 343.551 M149.471 343.748 C 143.804 351.122,144.631 353.638,152.668 353.472 C 160.038 353.320,162.840 352.453,163.158 350.225 C 163.313 349.144,164.462 347.299,165.711 346.125 C 170.003 342.093,168.679 341.194,157.164 340.325 C 152.502 339.974,152.304 340.062,149.471 343.748 M287.607 347.452 C 288.595 352.813,288.564 352.964,285.840 356.066 C 279.718 363.039,264.756 376.083,241.299 394.900 C 231.856 402.475,219.828 412.408,214.571 416.973 C 209.313 421.539,204.815 425.077,204.574 424.837 C 203.729 423.992,201.424 411.562,201.408 407.763 C 201.395 404.613,201.839 403.633,203.888 402.290 C 205.261 401.391,212.256 395.983,219.433 390.274 C 232.902 379.560,272.544 349.181,280.742 343.291 C 286.008 339.509,286.159 339.601,287.607 347.452 M102.784 341.279 C 100.870 341.480,99.304 342.124,99.304 342.712 C 99.304 343.300,97.531 345.588,95.363 347.797 C 90.335 352.920,91.395 353.907,101.160 353.194 C 108.567 352.653,111.515 350.713,112.881 345.478 C 114.105 340.788,112.774 340.234,102.784 341.279 M175.747 346.025 C 170.000 353.054,171.463 355.152,181.314 354.005 C 188.679 353.148,190.755 351.983,193.883 346.950 C 197.628 340.927,197.188 340.487,187.736 340.802 L 179.799 341.067 175.747 346.025 M120.313 346.132 C 113.396 353.526,114.917 355.046,128.134 353.944 C 135.295 353.346,135.651 353.206,137.047 350.443 C 137.846 348.859,139.380 346.602,140.455 345.427 C 143.225 342.400,141.434 341.563,132.146 341.546 L 124.616 341.531 120.313 346.132 M201.488 346.724 C 196.008 354.377,196.668 355.102,208.086 353.977 C 216.011 353.196,219.954 350.318,219.954 345.315 L 219.954 342.459 213.997 342.459 C 210.721 342.459,207.423 342.222,206.668 341.933 C 205.749 341.580,204.040 343.161,201.488 346.724 M229.529 344.218 C 229.276 345.185,227.193 347.323,224.901 348.969 C 219.596 352.779,220.289 353.337,231.252 354.083 L 240.230 354.694 243.526 350.201 C 248.775 343.044,248.390 342.459,238.428 342.459 C 230.926 342.459,229.938 342.655,229.529 344.218 M86.239 346.549 C 84.425 349.624,74.618 352.421,72.628 350.432 C 70.724 348.528,78.449 343.387,83.213 343.387 L 88.104 343.387 86.239 346.549 M110.436 344.084 C 110.411 347.632,106.962 350.160,101.614 350.551 L 96.056 350.957 98.840 348.004 C 102.500 344.122,110.455 341.433,110.436 344.084 M163.341 343.798 C 163.341 347.664,159.135 350.812,153.969 350.812 C 147.723 350.812,147.646 350.705,150.859 346.491 C 152.976 343.716,163.341 341.480,163.341 343.798 M192.111 344.301 C 192.111 348.822,179.858 353.717,176.627 350.486 C 175.535 349.395,180.349 344.749,183.135 344.206 C 187.909 343.275,192.111 343.320,192.111 344.301 M135.613 347.463 C 133.761 351.333,125.514 353.321,121.594 350.842 C 118.314 348.768,124.989 344.316,131.379 344.316 L 137.120 344.316 135.613 347.463 M216.892 345.799 C 217.775 348.459,213.922 350.768,207.557 351.392 L 201.194 352.017 203.381 348.674 C 204.943 346.286,206.364 345.241,208.353 345.017 C 213.304 344.459,216.546 344.756,216.892 345.799 M243.155 345.479 C 243.155 349.087,238.952 351.740,233.236 351.740 C 226.451 351.740,226.517 351.816,230.179 348.154 C 233.199 345.134,243.155 343.081,243.155 345.479 M61.811 358.668 C 55.775 364.705,58.269 368.099,68.135 367.276 C 81.803 366.135,85.937 356.381,72.752 356.381 C 70.084 356.381,67.283 356.143,66.527 355.853 C 65.703 355.537,63.816 356.663,61.811 358.668 M90.023 357.025 C 85.709 357.707,81.599 366.579,84.995 367.882 C 87.110 368.694,99.560 368.549,100.901 367.697 C 102.883 366.438,105.030 359.081,103.836 357.642 C 102.831 356.431,95.776 356.116,90.023 357.025 M77.328 360.053 C 79.156 361.802,73.114 364.733,67.679 364.733 C 61.195 364.733,59.973 363.418,63.578 360.317 C 66.212 358.051,75.059 357.881,77.328 360.053 M113.024 359.861 C 109.433 363.977,108.443 368.764,110.981 369.738 C 114.323 371.021,123.411 370.327,124.884 368.677 C 128.649 364.460,130.997 359.824,129.763 359.042 C 127.294 357.476,114.561 358.099,113.024 359.861 M137.276 362.686 C 134.048 367.777,134.822 369.384,140.485 369.351 C 149.659 369.297,155.916 366.413,155.916 362.240 C 155.916 359.585,155.466 359.420,146.773 358.888 L 139.950 358.471 137.276 362.686 M162.971 362.510 C 159.712 367.654,159.877 368.230,164.830 368.973 C 175.715 370.605,183.759 367.428,183.759 361.496 C 183.759 358.622,181.993 358.128,172.835 358.444 L 165.385 358.701 162.971 362.510 M195.273 358.826 C 193.093 359.308,189.327 365.334,189.327 368.340 C 189.327 370.624,200.279 371.240,205.922 369.273 C 210.678 367.615,212.948 361.164,209.272 359.754 C 207.314 359.002,197.437 358.348,195.273 358.826 M101.160 360.032 C 101.160 364.505,99.449 365.661,92.830 365.661 C 85.568 365.661,85.540 365.638,88.230 361.860 C 90.167 359.140,101.160 357.586,101.160 360.032 M287.268 366.296 C 286.604 369.836,284.677 371.099,282.587 369.364 C 280.353 367.510,280.992 364.585,284.223 361.872 C 287.686 358.964,288.439 360.057,287.268 366.296 M180.974 362.460 C 180.974 365.010,176.992 366.589,170.559 366.589 C 163.930 366.589,163.494 366.301,165.704 363.377 C 166.721 362.033,168.470 361.468,172.397 361.218 C 175.322 361.031,177.862 360.730,178.043 360.549 C 178.752 359.841,180.974 361.289,180.974 362.460 M126.218 361.531 C 126.218 365.344,123.177 367.517,117.842 367.517 C 111.910 367.517,111.391 366.978,113.796 363.308 C 115.187 361.185,126.218 359.607,126.218 361.531 M152.632 361.600 C 156.295 363.005,151.368 365.661,145.100 365.661 C 138.825 365.661,138.691 365.584,140.172 362.816 C 141.156 360.978,149.013 360.211,152.632 361.600 M208.133 362.785 C 210.007 364.567,204.524 367.325,198.376 367.694 C 191.601 368.100,191.285 367.823,193.735 363.639 C 195.341 360.899,205.515 360.295,208.133 362.785 M67.007 369.120 C 64.849 369.386,63.700 370.139,63.120 371.666 C 62.666 372.858,61.852 374.108,61.310 374.443 C 57.004 377.104,62.182 380.510,70.534 380.510 C 78.289 380.510,80.425 379.464,81.759 375.013 C 83.644 368.722,80.480 367.458,67.007 369.120 M79.814 372.097 C 79.814 376.739,78.190 377.726,70.557 377.726 C 66.460 377.726,63.109 377.381,63.109 376.960 C 63.109 375.554,67.255 372.326,69.606 371.901 C 73.958 371.115,79.814 371.228,79.814 372.097 M91.206 372.246 C 89.973 372.703,89.559 373.875,89.559 376.915 L 89.559 380.974 94.352 381.788 C 106.482 383.846,116.273 377.635,107.867 373.213 C 105.849 372.152,93.410 371.429,91.206 372.246 M125.942 372.827 C 122.990 373.271,118.568 380.656,120.248 382.336 C 123.035 385.123,134.726 383.409,136.286 379.985 C 139.245 373.491,136.080 371.301,125.942 372.827 M177.130 373.697 C 174.066 377.187,172.333 381.613,173.694 382.476 C 175.545 383.648,186.353 383.461,188.692 382.215 C 192.672 380.095,194.614 374.817,191.809 373.740 C 187.474 372.077,178.576 372.051,177.130 373.697 M150.885 373.782 C 148.055 376.594,146.829 383.742,149.032 384.587 C 156.502 387.454,167.801 381.317,165.603 375.588 C 164.897 373.749,152.455 372.222,150.885 373.782 M104.868 374.843 C 111.945 376.813,105.306 380.403,96.755 379.231 C 91.478 378.508,91.161 378.203,93.266 375.876 C 95.014 373.944,100.032 373.498,104.868 374.843 M134.571 376.654 C 134.571 380.358,127.549 382.908,123.237 380.772 C 122.154 380.235,124.498 375.989,126.115 375.557 C 130.391 374.414,134.571 374.957,134.571 376.654 M190.125 376.358 C 191.785 378.018,186.764 380.510,181.759 380.510 C 175.892 380.510,175.547 380.191,177.858 376.892 C 179.281 374.860,188.236 374.470,190.125 376.358 M162.810 376.689 C 164.219 378.970,159.500 382.367,154.921 382.367 C 150.093 382.367,149.809 382.048,151.253 378.251 C 152.186 375.798,161.482 374.542,162.810 376.689 M70.424 386.775 C 70.363 387.158,70.362 387.782,70.422 388.161 C 70.481 388.541,69.044 390.798,67.228 393.177 C 62.779 399.006,63.580 399.593,77.958 401.056 C 94.490 402.739,160.651 402.772,162.669 401.099 C 164.677 399.435,166.485 390.879,165.165 389.288 C 164.452 388.429,160.611 388.071,151.460 388.013 C 144.468 387.968,127.471 387.525,113.689 387.029 C 83.155 385.930,70.569 385.856,70.424 386.775 M141.833 390.403 C 163.204 391.006,163.474 391.039,162.959 392.955 C 162.673 394.022,162.433 395.388,162.426 395.989 C 162.381 399.833,160.646 400.054,131.929 399.883 C 104.496 399.719,79.194 398.795,71.679 397.683 L 67.719 397.097 70.750 392.848 L 73.782 388.599 96.984 389.195 C 109.745 389.523,129.927 390.066,141.833 390.403 M27.494 393.619 C 25.650 395.774,24.348 397.743,24.600 397.995 C 24.852 398.247,25.162 398.275,25.290 398.056 C 25.418 397.838,26.955 396.104,28.707 394.203 C 30.459 392.302,31.657 390.512,31.369 390.225 C 31.082 389.937,29.338 391.465,27.494 393.619 M207.389 407.853 C 205.990 409.687,205.054 411.396,205.310 411.651 C 205.565 411.907,206.918 410.615,208.317 408.781 C 209.716 406.947,210.651 405.238,210.396 404.982 C 210.141 404.727,208.788 406.019,207.389 407.853 M198.952 408.121 C 200.249 414.853,201.593 427.951,201.044 428.500 C 199.741 429.803,194.484 429.929,132.715 430.137 C 97.749 430.255,61.143 430.663,51.366 431.044 C 16.841 432.389,16.731 432.349,13.405 417.326 L 11.385 408.201 13.349 408.968 C 14.429 409.389,52.483 409.760,97.912 409.791 C 180.594 409.848,190.528 409.520,195.595 406.569 C 198.024 405.154,198.415 405.335,198.952 408.121 M209.564 430.387 C 209.242 435.392,205.563 438.501,202.736 436.155 C 200.618 434.397,201.128 432.753,204.872 429.272 C 209.427 425.038,209.900 425.150,209.564 430.387 M24.942 433.991 C 28.461 434.694,28.708 436.768,25.450 438.253 C 22.750 439.483,20.933 438.721,18.760 435.448 C 17.239 433.158,18.863 432.775,24.942 433.991 " stroke="none" fill="#000000" fill-rule="evenodd"></path></g></svg>