<svg id="svg" version="1.1" xmlns="http://www.w3.org/2000/svg" xmlns:xlink="http://www.w3.org/1999/xlink" width="400" height="416.31205673758865" viewBox="0, 0, 400,416.31205673758865"><g id="svgg"><path id="path0" d="M202.482 5.163 C 197.131 6.316,185.781 11.769,174.645 18.536 C 173.670 19.129,172.394 19.904,171.809 20.259 C 169.761 21.499,156.349 30.490,155.042 31.498 C 154.317 32.057,152.128 33.684,150.177 35.113 C 143.207 40.220,129.831 50.935,118.930 60.142 C 116.567 62.138,111.141 66.689,106.873 70.255 C 81.216 91.693,84.695 88.529,57.801 114.877 C 35.460 136.764,32.430 139.868,29.756 143.611 C 23.782 151.971,22.349 158.567,23.572 172.069 C 25.628 194.759,26.486 225.547,26.632 281.915 C 26.696 306.818,26.791 308.770,28.935 329.610 C 29.319 333.343,29.555 339.408,29.623 347.340 C 29.798 367.523,32.426 375.306,42.166 384.494 C 55.972 397.518,72.884 401.152,139.007 405.303 C 160.172 406.631,188.763 407.087,198.759 406.256 C 202.465 405.948,213.555 405.058,223.404 404.278 C 233.254 403.498,241.911 402.773,242.643 402.666 C 243.375 402.560,246.168 402.315,248.849 402.122 C 256.887 401.542,258.238 401.439,269.681 400.527 C 284.565 399.340,284.051 399.376,297.695 398.573 C 343.808 395.859,363.952 390.621,371.686 379.334 C 375.216 374.181,376.269 370.110,378.353 353.546 C 378.929 348.963,379.796 342.261,380.279 338.652 C 382.387 322.892,384.684 301.955,385.471 291.312 C 385.687 288.387,385.921 285.275,385.991 284.397 C 388.623 251.264,389.253 181.357,387.038 168.262 C 384.470 153.086,378.059 144.824,348.398 118.467 C 343.916 114.484,338.111 109.218,335.499 106.765 C 332.887 104.312,330.414 102.015,330.003 101.661 C 329.592 101.306,326.141 97.955,322.334 94.214 C 312.274 84.326,306.951 79.200,300.337 73.029 C 285.706 59.378,282.713 56.839,258.241 37.321 C 257.410 36.659,255.323 35.051,253.604 33.750 C 247.619 29.219,237.478 21.419,230.576 16.038 C 216.629 5.164,211.569 3.205,202.482 5.163 M209.556 22.917 C 213.642 24.076,216.300 25.712,224.468 32.098 C 232.090 38.058,232.505 38.352,245.609 47.089 C 269.266 62.862,278.290 70.819,320.736 113.334 C 332.989 125.606,339.805 132.132,345.035 136.597 C 369.098 157.138,371.161 162.412,359.787 174.291 C 358.479 175.656,356.038 178.528,354.361 180.674 C 343.954 193.987,338.458 197.891,333.464 195.521 C 328.803 193.310,327.611 187.694,329.072 174.825 C 331.354 154.722,328.430 150.608,310.816 149.139 C 307.305 148.846,297.172 147.968,288.298 147.187 C 231.117 142.155,158.227 136.903,135.461 136.173 C 85.604 134.575,78.698 137.722,77.683 162.496 C 77.010 178.934,73.657 184.242,66.523 180.161 C 62.500 177.859,45.802 160.642,44.869 157.834 C 42.533 150.801,51.009 139.791,80.674 111.324 C 93.954 98.579,114.966 80.936,136.178 64.716 C 147.290 56.220,157.963 47.949,166.844 40.950 C 186.008 25.850,199.623 20.101,209.556 22.917 M140.248 152.127 C 149.722 152.605,163.463 153.449,172.163 154.088 C 176.064 154.374,187.713 155.241,198.050 156.014 C 217.229 157.449,226.684 157.970,239.894 158.323 C 259.897 158.858,261.828 158.965,275.709 160.315 C 309.701 163.621,314.813 167.622,315.993 191.844 C 316.197 196.037,316.592 200.475,316.870 201.706 C 320.008 215.587,315.421 222.170,276.418 259.754 C 270.762 265.204,259.193 276.621,250.709 285.125 C 214.542 321.378,217.106 320.533,197.340 302.701 C 195.195 300.765,192.881 298.686,192.199 298.080 C 188.027 294.381,165.069 273.580,149.111 259.043 C 125.348 237.394,122.216 234.629,114.362 228.365 C 90.011 208.944,86.351 200.576,90.068 172.821 C 91.936 158.874,95.755 153.661,105.347 151.963 C 108.694 151.371,126.952 151.457,140.248 152.127 M125.892 176.076 C 118.942 177.333,113.484 180.203,115.279 181.657 C 119.055 184.714,125.600 186.416,138.088 187.587 C 142.202 187.973,152.270 189.081,160.461 190.048 C 185.555 193.013,193.845 193.892,202.305 194.483 C 208.589 194.923,210.218 195.042,212.766 195.245 C 217.727 195.642,245.534 195.804,251.771 195.473 C 257.590 195.163,258.031 195.184,258.881 195.812 C 260.727 197.177,269.131 197.227,276.176 195.914 C 299.208 191.624,281.346 184.507,249.468 185.273 C 220.654 185.965,215.889 185.787,197.518 183.325 C 193.129 182.737,185.310 181.699,180.142 181.019 C 168.002 179.421,162.134 178.597,155.142 177.508 C 142.271 175.504,131.870 174.995,125.892 176.076 M49.642 187.459 C 56.688 191.265,66.610 200.589,83.899 219.653 C 85.831 221.783,89.110 225.054,91.187 226.922 C 137.875 268.924,144.452 275.325,146.298 280.558 C 148.884 287.886,146.238 290.639,109.220 319.139 C 88.137 335.370,84.774 338.029,80.496 341.850 C 52.037 367.272,45.432 367.872,45.395 345.035 C 45.391 342.598,44.757 333.103,43.986 323.936 C 43.215 314.770,42.252 303.121,41.846 298.050 C 41.439 292.979,40.799 285.000,40.422 280.319 C 37.650 245.906,37.927 199.159,40.962 189.076 C 42.113 185.253,44.674 184.776,49.642 187.459 M370.711 193.940 C 375.474 198.414,376.546 218.456,374.155 258.333 C 373.360 271.596,372.542 285.718,372.337 289.716 C 372.132 293.715,371.891 297.943,371.800 299.113 C 370.904 310.700,370.460 319.571,370.231 330.496 C 369.938 344.480,369.809 345.460,367.862 348.460 C 364.256 354.017,358.636 351.893,348.577 341.172 C 342.508 334.703,305.169 297.553,302.329 295.158 C 294.861 288.860,292.174 286.411,290.326 284.215 C 280.755 272.846,285.415 264.669,316.075 239.024 C 324.347 232.105,346.064 210.872,353.477 202.455 C 361.016 193.896,367.339 190.772,370.711 193.940 M125.887 206.029 C 113.989 207.019,112.737 210.899,123.034 214.865 C 127.693 216.659,132.041 217.247,153.369 218.969 C 169.451 220.267,210.114 223.598,235.638 225.708 C 264.915 228.128,266.054 228.167,276.064 227.107 C 281.021 226.582,285.975 225.126,289.159 223.261 C 291.246 222.038,291.156 221.798,287.921 219.939 C 282.663 216.919,277.200 215.807,264.867 215.247 C 260.493 215.048,253.723 214.647,249.823 214.357 C 233.886 213.169,225.903 212.638,180.851 209.762 C 170.222 209.083,157.456 208.054,152.482 207.473 C 143.722 206.451,133.223 205.624,130.319 205.728 C 129.539 205.755,127.544 205.891,125.887 206.029 M188.475 238.886 C 173.440 239.778,164.347 240.633,159.043 241.653 C 157.482 241.953,156.166 242.198,156.117 242.199 C 155.257 242.199,156.838 243.254,160.018 244.803 C 168.609 248.986,176.600 250.454,196.986 251.591 C 207.614 252.185,207.225 252.150,217.347 253.378 C 233.714 255.362,241.146 254.143,248.023 248.346 C 251.245 245.630,251.246 245.610,248.148 244.139 C 239.150 239.865,212.092 237.484,188.475 238.886 M210.284 265.824 C 201.457 266.949,195.060 269.351,192.183 272.620 C 190.283 274.778,190.306 274.818,194.240 276.311 C 196.140 277.033,200.758 278.816,204.501 280.274 L 211.308 282.926 213.367 282.258 C 214.499 281.891,217.660 280.939,220.390 280.141 C 233.865 276.204,236.007 272.478,227.319 268.092 C 223.677 266.254,215.476 265.162,210.284 265.824 M274.227 288.812 C 281.616 291.419,290.100 298.783,305.093 315.603 C 309.004 319.991,317.731 329.087,324.486 335.816 C 342.138 353.401,348.183 360.283,349.980 364.843 C 350.352 365.786,351.147 367.332,351.747 368.278 C 353.619 371.231,353.067 372.657,349.672 373.636 C 348.585 373.949,346.603 374.753,345.268 375.422 C 337.122 379.505,321.166 381.807,290.426 383.334 C 282.527 383.727,274.229 384.205,271.986 384.398 C 266.645 384.855,238.904 387.527,205.851 390.767 C 184.510 392.858,190.037 392.944,161.879 390.088 C 148.227 388.704,133.307 387.183,128.723 386.709 C 124.140 386.235,116.321 385.517,111.348 385.114 C 88.782 383.285,77.928 381.345,67.548 377.287 L 63.832 375.834 64.903 374.278 C 71.648 364.474,81.895 355.174,100.527 341.947 C 104.430 339.176,109.140 335.832,110.993 334.517 C 116.428 330.658,122.039 326.451,129.610 320.557 C 149.782 304.855,153.703 301.999,157.733 300.075 C 165.626 296.307,170.853 299.205,185.108 315.248 C 209.075 342.224,216.902 342.847,236.818 319.364 C 239.290 316.450,242.629 312.536,244.239 310.668 C 245.849 308.799,248.720 305.434,250.620 303.191 C 262.497 289.166,267.168 286.321,274.227 288.812 " stroke="none" fill="#000000" fill-rule="evenodd"></path></g></svg>