<svg id="svg" version="1.1" xmlns="http://www.w3.org/2000/svg" xmlns:xlink="http://www.w3.org/1999/xlink" width="400" height="365.2" viewBox="0, 0, 400,365.2"><g id="svgg"><path id="path0" d="M190.400 0.401 C 177.005 0.845,167.066 1.344,138.600 3.002 C 125.620 3.757,110.950 4.584,106.000 4.838 C 96.360 5.333,78.171 5.148,62.600 4.397 C 38.308 3.224,23.682 6.280,15.749 14.185 C 9.586 20.327,4.590 39.043,7.906 43.567 C 8.322 44.135,9.145 45.865,9.733 47.412 L 10.803 50.224 8.386 55.566 C 3.114 67.216,-0.938 84.231,0.387 89.152 C 2.852 98.305,17.612 103.779,28.066 99.418 C 28.566 99.210,28.988 99.578,29.766 100.905 C 31.124 103.224,31.212 102.944,27.975 106.605 C 12.898 123.656,8.874 145.667,18.896 156.264 C 25.348 163.086,37.414 162.102,46.106 154.046 C 47.155 153.074,48.078 152.351,48.159 152.439 C 48.239 152.528,48.979 154.179,49.803 156.108 C 50.627 158.037,51.468 159.718,51.671 159.844 C 51.874 159.970,50.589 161.585,48.814 163.433 C 33.076 179.826,35.086 202.157,53.285 213.105 C 59.317 216.733,64.397 217.230,72.300 214.965 C 72.954 214.777,73.200 214.874,73.200 215.320 C 73.200 215.657,73.350 215.993,73.534 216.067 C 73.718 216.140,74.541 217.489,75.364 219.063 C 76.187 220.638,77.489 222.661,78.257 223.558 C 79.096 224.538,79.533 225.384,79.353 225.676 C 79.188 225.943,77.936 227.545,76.571 229.235 C 67.467 240.513,64.512 257.569,69.697 268.924 C 73.620 277.518,82.114 279.146,96.400 274.042 C 100.484 272.583,99.889 272.122,103.490 279.536 L 106.082 284.872 104.848 286.336 C 91.142 302.598,90.076 327.342,102.825 333.285 C 107.466 335.448,115.376 335.965,123.395 334.629 C 125.372 334.299,127.102 334.158,127.238 334.315 C 127.374 334.472,128.391 336.580,129.498 339.000 C 137.790 357.135,141.242 363.546,143.140 364.328 C 143.503 364.478,111.400 364.691,71.800 364.802 C 32.200 364.913,89.890 365.003,200.000 365.002 C 310.110 365.002,346.055 364.956,279.877 364.900 C 199.921 364.833,159.636 364.665,159.800 364.399 C 159.947 364.162,162.518 363.997,166.124 363.994 C 190.549 363.969,215.542 360.270,280.000 347.141 C 330.159 336.924,349.239 333.776,373.338 331.741 C 381.191 331.077,381.699 331.076,382.058 331.718 C 383.340 334.009,385.228 332.093,387.157 326.542 C 388.679 322.164,394.455 309.104,398.054 301.907 C 402.267 293.481,399.189 282.610,381.998 245.200 C 363.311 204.534,345.433 161.957,336.817 137.600 C 325.820 106.513,323.523 100.841,312.159 76.718 C 297.356 45.292,292.416 31.903,289.641 15.684 C 288.855 11.094,288.874 10.800,289.944 10.800 C 292.476 10.800,292.106 7.670,289.500 7.048 C 288.666 6.848,288.400 6.545,288.400 5.792 C 288.400 4.590,287.366 4.448,287.000 5.600 C 286.688 6.582,287.499 6.620,279.192 5.228 C 254.365 1.065,222.542 -0.665,190.400 0.401 M235.067 5.213 C 251.051 5.935,263.166 7.032,277.200 9.028 C 286.299 10.323,285.696 10.090,285.380 12.192 C 284.149 20.404,291.010 39.922,308.302 77.400 C 319.694 102.089,321.487 106.499,330.986 133.200 C 341.889 163.846,357.868 201.749,377.699 244.000 C 386.669 263.112,392.193 276.111,395.207 285.200 C 396.264 288.390,397.251 291.304,397.398 291.675 C 397.827 292.755,395.457 293.679,385.800 296.196 C 368.984 300.578,365.350 301.594,356.400 304.415 C 325.414 314.180,305.911 317.688,258.600 322.005 C 230.153 324.600,223.047 325.433,197.000 329.224 C 187.980 330.537,177.270 331.968,173.200 332.403 C 165.318 333.247,160.884 334.248,158.050 335.826 C 155.978 336.979,156.000 336.975,156.000 336.165 C 156.000 335.816,154.721 332.801,153.158 329.465 C 150.321 323.409,147.003 315.750,142.474 304.800 C 139.724 298.150,133.233 284.531,131.966 282.753 C 130.915 281.276,130.878 281.311,134.242 280.598 C 142.449 278.859,150.329 281.190,152.847 286.100 L 153.616 287.600 152.708 287.606 C 150.743 287.619,149.589 289.513,150.603 291.060 C 151.926 293.080,155.221 293.720,158.450 292.584 C 163.799 290.703,166.019 286.803,162.561 285.358 C 161.349 284.852,161.200 284.622,161.200 283.259 C 161.200 280.831,159.039 276.973,155.988 273.953 C 148.455 266.498,137.327 265.101,125.896 270.176 C 124.914 270.612,122.452 265.275,119.028 255.289 C 116.761 248.676,105.832 222.767,104.691 221.300 C 104.158 220.615,103.004 220.672,102.389 221.413 C 101.487 222.500,104.190 229.782,110.107 242.209 C 112.499 247.232,114.840 252.948,116.409 257.600 C 117.782 261.670,119.602 266.510,120.453 268.355 C 122.287 272.332,122.265 272.151,120.987 272.733 C 120.200 273.092,119.941 273.084,119.829 272.698 C 119.750 272.424,119.371 270.940,118.988 269.400 C 117.958 265.260,115.489 258.689,112.000 250.800 C 110.298 246.950,107.876 241.370,106.618 238.400 C 105.360 235.430,103.261 230.606,101.954 227.680 C 99.234 221.592,99.181 222.022,102.876 220.162 C 110.323 216.412,117.536 216.243,120.181 219.756 C 122.196 222.432,123.709 229.974,122.500 231.311 C 119.285 234.863,126.106 239.696,131.033 237.357 C 134.258 235.827,135.024 230.000,132.000 230.000 C 131.772 230.000,131.600 228.824,131.600 227.273 C 131.600 213.456,114.874 204.436,99.941 210.200 C 99.399 210.409,99.231 210.078,98.994 208.327 C 98.352 203.607,97.240 200.909,91.107 189.200 C 88.047 183.360,85.878 178.661,79.655 164.400 C 78.743 162.310,77.291 159.670,76.429 158.533 L 74.862 156.465 76.845 155.989 C 81.055 154.979,85.126 156.810,87.495 160.777 L 88.794 162.955 87.947 163.856 C 85.121 166.864,89.425 169.632,96.064 169.076 C 101.599 168.612,103.720 166.338,101.252 163.514 C 100.227 162.340,100.085 161.838,99.923 158.800 C 99.310 147.331,87.973 141.698,74.562 146.200 C 72.924 146.750,71.499 147.200,71.397 147.200 C 70.030 147.200,63.169 128.847,59.032 114.126 C 57.082 107.186,55.761 103.810,54.187 101.747 C 52.872 100.024,52.847 100.050,55.649 100.274 C 61.627 100.753,65.187 103.290,69.711 110.297 L 70.807 111.993 70.003 112.797 C 66.048 116.752,76.637 121.060,81.395 117.431 C 85.145 114.571,85.229 111.734,81.576 111.315 L 79.800 111.111 78.829 108.083 C 74.849 95.667,60.247 88.186,48.668 92.629 C 48.116 92.841,47.999 92.619,47.995 91.343 C 47.992 90.430,47.244 88.002,46.164 85.400 C 45.160 82.980,43.027 77.310,41.424 72.800 C 37.792 62.582,37.759 62.504,34.867 57.484 C 32.137 52.746,29.600 47.803,29.600 47.225 C 29.600 46.560,35.331 44.030,38.859 43.137 C 48.689 40.651,59.664 45.192,61.829 52.641 C 62.726 55.726,62.502 56.876,60.925 57.282 C 55.788 58.604,58.667 64.756,64.440 64.791 C 69.633 64.823,74.885 59.077,71.010 57.604 C 70.105 57.260,70.000 56.999,70.000 55.094 C 70.000 36.614,47.592 26.540,25.416 35.049 C 23.434 35.810,16.749 18.758,18.176 16.581 C 19.212 14.999,24.128 12.076,27.830 10.840 C 36.081 8.086,38.886 7.985,94.800 8.417 C 113.933 8.565,117.109 8.485,139.400 7.299 C 160.127 6.195,175.422 5.491,187.800 5.070 C 196.880 4.761,227.088 4.852,235.067 5.213 M15.537 22.524 C 15.776 22.812,16.802 25.195,17.816 27.819 C 18.830 30.443,19.824 32.788,20.024 33.029 C 21.171 34.411,21.577 36.784,20.743 37.230 C 20.018 37.619,19.954 37.574,20.188 36.837 C 20.386 36.215,20.307 36.061,19.877 36.226 C 19.290 36.451,17.516 32.532,15.351 26.230 C 14.081 22.532,14.165 20.870,15.537 22.524 M16.936 34.800 L 18.367 38.600 16.176 40.741 C 14.971 41.919,13.517 43.682,12.944 44.659 C 12.371 45.637,11.853 46.383,11.791 46.318 C 10.901 45.374,9.648 40.863,9.987 39.820 C 10.204 39.149,11.026 35.463,11.812 31.628 C 13.574 23.038,13.512 23.131,14.606 27.451 C 15.101 29.403,16.149 32.710,16.936 34.800 M50.486 35.646 C 56.611 36.932,62.586 41.499,65.125 46.835 C 66.627 49.992,67.747 54.413,67.186 54.974 C 66.974 55.186,66.800 55.954,66.800 56.680 C 66.800 59.597,65.671 58.130,65.165 54.556 C 63.225 40.855,44.821 35.013,30.000 43.394 C 11.904 53.626,-0.739 84.622,10.321 91.636 C 13.563 93.692,18.857 94.267,23.018 93.015 C 24.087 92.693,24.985 92.468,25.012 92.515 C 25.039 92.562,25.455 93.256,25.937 94.058 L 26.814 95.517 24.707 96.058 C 11.749 99.389,2.292 92.936,3.356 81.490 C 4.148 72.963,9.906 56.555,13.221 53.380 C 13.870 52.758,14.400 51.848,14.400 51.356 C 14.400 49.749,18.401 43.618,20.566 41.906 C 27.666 36.294,40.642 33.579,50.486 35.646 M31.135 55.546 C 34.731 61.496,37.940 70.020,41.396 82.800 C 41.962 84.890,43.219 88.166,44.190 90.080 C 45.866 93.385,45.914 93.573,45.147 93.817 C 44.148 94.134,44.370 94.402,42.477 90.600 C 37.589 80.785,36.016 76.564,33.765 67.234 C 32.270 61.036,31.659 59.228,30.021 56.163 C 27.888 52.170,26.747 49.215,27.111 48.623 C 27.238 48.415,27.672 49.021,28.074 49.969 C 28.477 50.917,29.854 53.426,31.135 55.546 M30.159 65.266 C 34.923 79.413,38.230 87.385,41.623 92.899 C 42.296 93.992,42.791 94.935,42.723 94.993 C 42.655 95.051,41.970 95.414,41.200 95.800 C 40.430 96.185,38.399 97.477,36.686 98.669 L 33.572 100.838 32.830 99.119 C 32.421 98.174,30.255 93.187,28.016 88.039 C 22.226 74.726,19.832 68.523,17.867 61.750 L 17.273 59.699 19.474 56.750 C 21.781 53.657,24.839 50.306,25.108 50.574 C 25.194 50.661,27.467 57.272,30.159 65.266 M62.402 59.500 C 62.404 59.885,62.669 60.705,62.991 61.323 C 63.557 62.408,63.546 62.437,62.688 62.182 C 60.159 61.427,59.490 60.402,60.889 59.423 C 62.037 58.618,62.399 58.637,62.402 59.500 M17.177 64.985 C 17.192 65.484,16.915 65.209,16.415 64.230 C 15.778 62.980,15.718 62.531,16.097 61.845 C 16.572 60.984,17.105 62.532,17.177 64.985 M15.336 71.000 C 16.108 73.420,17.211 77.200,17.787 79.400 C 19.150 84.607,20.457 87.407,22.498 89.494 L 24.156 91.189 20.178 90.968 C 11.149 90.466,8.809 88.618,8.802 81.984 C 8.799 78.819,13.038 65.700,13.812 66.479 C 13.878 66.546,14.563 68.580,15.336 71.000 M62.258 95.235 C 69.985 97.588,75.520 103.771,77.010 111.712 C 77.613 114.927,74.906 112.986,72.112 108.200 C 60.387 88.113,36.328 97.297,21.741 127.428 C 11.519 148.544,25.168 161.755,43.317 148.312 C 44.811 147.205,46.089 146.367,46.157 146.450 C 46.396 146.739,47.200 149.324,47.200 149.802 C 47.200 150.498,42.938 153.384,39.494 155.019 C 25.363 161.730,14.275 153.430,16.056 137.476 C 18.858 112.377,43.767 89.604,62.258 95.235 M50.865 102.100 C 51.213 102.815,52.141 104.660,52.929 106.200 C 53.716 107.740,55.092 111.520,55.987 114.600 C 59.235 125.777,63.164 137.123,65.743 142.772 C 68.266 148.299,68.546 149.600,67.210 149.600 C 66.320 149.600,60.354 135.189,57.606 126.400 C 56.677 123.430,54.206 116.692,52.115 111.426 C 48.548 102.445,48.358 101.820,49.033 101.326 C 50.041 100.589,50.154 100.637,50.865 102.100 M47.281 106.704 C 48.095 108.627,50.027 113.112,51.574 116.671 C 53.120 120.230,55.037 125.360,55.832 128.071 C 59.660 141.121,61.087 144.668,63.990 148.340 L 65.591 150.366 61.496 153.183 C 59.243 154.732,56.556 156.639,55.525 157.420 C 53.691 158.808,53.640 158.822,53.206 158.012 C 52.569 156.821,53.106 156.191,54.040 157.036 C 55.173 158.062,55.121 157.859,50.811 144.534 C 45.749 128.880,43.304 121.927,41.271 117.400 C 40.381 115.420,39.335 112.650,38.946 111.244 L 38.237 108.687 39.819 107.315 C 45.484 102.398,45.458 102.401,47.281 106.704 M36.508 114.099 C 38.020 118.192,40.000 124.163,39.981 124.579 C 39.949 125.306,38.000 121.269,36.553 117.477 C 35.790 115.477,34.971 113.606,34.734 113.320 C 34.422 112.944,34.442 112.631,34.808 112.190 C 35.449 111.418,35.564 111.547,36.508 114.099 M35.341 118.475 C 35.921 120.663,37.751 125.364,39.545 129.275 C 42.553 135.830,45.200 142.627,45.200 143.795 C 45.200 144.087,43.278 145.608,40.929 147.173 C 20.273 160.941,13.310 139.263,31.143 116.710 C 34.073 113.004,33.870 112.919,35.341 118.475 M75.200 116.353 C 76.044 116.687,76.075 116.752,75.400 116.766 C 74.185 116.791,71.200 115.313,71.200 114.686 C 71.200 113.583,71.772 113.610,72.974 114.771 C 73.648 115.423,74.650 116.134,75.200 116.353 M81.515 114.478 C 80.672 115.747,80.070 115.815,80.299 114.616 C 80.430 113.930,80.754 113.600,81.295 113.600 C 82.032 113.600,82.050 113.672,81.515 114.478 M89.302 148.571 C 94.123 150.852,97.241 155.814,97.526 161.658 C 97.723 165.705,97.555 165.874,94.004 165.201 C 91.430 164.713,91.676 164.937,91.258 162.701 C 90.576 159.048,88.159 156.037,84.400 154.157 C 69.786 146.848,42.682 170.441,44.129 189.211 C 45.117 202.023,60.262 214.879,68.903 210.241 L 70.806 209.219 71.346 210.510 C 72.075 212.249,70.754 212.864,65.758 213.111 C 51.225 213.827,38.191 197.373,41.379 182.335 C 45.312 163.779,75.898 142.230,89.302 148.571 M73.200 157.807 C 73.200 158.141,74.078 160.166,75.150 162.307 C 76.223 164.448,78.853 170.250,80.995 175.200 C 83.137 180.150,86.739 187.984,88.999 192.609 C 94.035 202.914,96.955 211.405,95.762 212.277 C 94.791 212.987,94.785 212.977,92.415 206.600 C 87.262 192.736,84.234 186.133,79.110 177.590 C 75.243 171.144,74.150 168.961,72.958 165.311 C 72.424 163.673,71.629 161.594,71.193 160.691 C 70.150 158.532,70.189 158.144,71.500 157.665 C 73.035 157.104,73.200 157.118,73.200 157.807 M70.374 166.971 C 71.380 169.837,73.512 173.773,77.534 180.188 C 81.362 186.293,83.913 191.707,87.812 202.000 C 89.520 206.510,91.251 210.980,91.659 211.933 C 92.626 214.196,92.641 214.133,90.900 215.298 C 90.075 215.850,87.904 217.603,86.076 219.193 C 84.247 220.783,82.675 222.009,82.583 221.916 C 81.979 221.312,77.428 210.920,73.685 201.600 C 71.256 195.550,67.716 187.450,65.820 183.600 C 62.154 176.159,60.627 171.877,60.076 167.496 L 59.736 164.793 61.768 163.235 C 62.886 162.379,64.880 161.030,66.200 160.239 L 68.600 158.799 69.071 161.700 C 69.330 163.295,69.916 165.667,70.374 166.971 M89.200 165.200 C 89.200 166.071,89.392 166.403,89.900 166.413 C 90.285 166.420,90.949 166.690,91.376 167.013 C 92.145 167.594,92.145 167.600,91.376 167.599 C 89.432 167.595,87.263 165.271,88.267 164.267 C 88.840 163.693,89.200 164.053,89.200 165.200 M56.630 169.900 C 56.649 171.142,57.163 172.977,58.114 175.200 C 58.913 177.070,59.746 179.410,59.964 180.400 C 60.637 183.453,67.347 201.555,69.841 207.043 C 70.172 207.773,67.562 208.595,64.993 208.569 C 55.793 208.475,45.167 194.685,46.756 184.900 C 47.526 180.157,50.008 175.264,54.007 170.605 C 56.654 167.522,56.593 167.538,56.630 169.900 M71.022 199.802 C 73.372 205.577,73.750 206.929,72.161 203.874 C 71.178 201.986,67.183 192.093,67.218 191.633 C 67.259 191.091,68.993 194.815,71.022 199.802 M114.948 211.803 C 124.858 214.385,130.335 222.738,127.811 231.422 C 127.147 233.704,127.108 233.749,126.606 232.811 C 126.320 232.277,126.174 231.611,126.282 231.330 C 126.390 231.050,126.205 230.548,125.871 230.214 C 125.522 229.864,125.149 228.462,124.993 226.904 C 124.373 220.738,123.115 217.887,120.278 216.225 C 105.793 207.736,76.434 232.206,74.928 254.024 C 73.985 267.677,83.083 274.315,94.700 268.451 L 97.051 267.263 98.009 269.016 C 99.172 271.146,99.506 270.849,94.200 272.394 C 77.673 277.207,69.482 271.291,70.116 255.000 C 71.044 231.173,96.212 206.923,114.948 211.803 M98.746 225.912 C 99.199 227.404,101.808 233.299,104.544 239.012 C 112.218 255.036,116.139 264.995,117.603 272.173 L 118.087 274.546 116.949 275.373 C 116.322 275.828,114.749 277.051,113.451 278.090 C 112.154 279.130,110.932 279.882,110.736 279.760 C 110.202 279.430,107.702 274.321,103.187 264.336 C 98.923 254.905,97.019 251.199,94.099 246.642 C 91.639 242.804,88.602 236.999,87.816 234.631 L 87.163 232.663 89.281 230.497 C 90.961 228.779,97.510 223.200,97.846 223.200 C 97.888 223.200,98.293 224.421,98.746 225.912 M131.600 233.138 C 131.600 233.925,130.287 235.354,129.910 234.977 C 129.604 234.671,130.766 232.400,131.229 232.400 C 131.433 232.400,131.600 232.732,131.600 233.138 M85.434 239.059 C 86.088 241.308,86.491 242.307,89.197 248.400 C 90.028 250.270,91.270 253.481,91.958 255.535 C 92.646 257.590,93.825 260.606,94.579 262.238 L 95.950 265.205 94.741 265.831 C 91.853 267.324,85.027 268.047,81.933 267.188 C 75.261 265.335,75.603 249.511,82.551 238.650 C 84.246 236.001,84.558 236.045,85.434 239.059 M93.994 249.187 C 94.637 250.462,96.899 255.352,99.020 260.053 C 101.141 264.754,104.306 271.469,106.052 274.976 C 108.929 280.751,109.471 282.400,108.493 282.400 C 108.310 282.400,107.918 281.725,107.622 280.900 C 106.631 278.141,101.004 266.259,98.198 261.000 C 96.672 258.140,95.397 255.349,95.364 254.798 C 95.331 254.247,94.020 251.234,92.452 248.103 C 90.883 244.972,89.602 242.273,89.604 242.105 C 89.610 241.633,92.684 246.593,93.994 249.187 M143.600 270.842 C 155.131 273.697,161.933 281.632,158.504 288.227 C 157.093 290.940,156.552 291.119,156.258 288.967 C 154.794 278.287,139.215 274.485,125.000 281.340 C 106.270 290.373,94.635 315.715,105.479 323.860 C 109.407 326.810,117.445 328.181,123.662 326.961 C 124.637 326.770,124.791 326.928,125.528 328.876 C 125.970 330.044,126.446 331.290,126.587 331.645 C 127.217 333.232,110.220 332.819,105.729 331.139 C 91.612 325.857,94.232 300.206,110.484 284.573 C 123.727 271.834,132.654 268.132,143.600 270.842 M129.344 283.939 C 129.479 284.786,130.782 287.891,132.239 290.839 C 135.624 297.691,137.881 302.747,140.791 310.000 C 144.011 318.022,147.447 325.667,150.563 331.738 C 153.470 337.403,153.479 337.442,152.546 339.887 C 151.719 342.050,151.739 342.056,149.666 339.141 C 143.602 330.615,141.016 324.985,134.995 307.200 C 132.947 301.150,130.086 293.629,128.636 290.486 C 125.635 283.981,125.606 283.839,127.100 283.029 C 128.757 282.130,129.075 282.259,129.344 283.939 M125.177 286.300 C 125.437 287.345,126.626 290.479,127.820 293.265 C 129.985 298.317,131.999 304.082,136.130 317.048 C 140.703 331.401,146.174 341.041,151.088 343.400 C 151.214 343.461,146.842 355.996,146.449 356.698 C 146.035 357.438,145.553 356.673,140.082 346.600 C 133.119 333.782,130.311 327.624,126.215 316.200 C 124.086 310.260,121.178 302.956,119.754 299.968 C 115.171 290.358,115.150 290.561,121.171 286.436 C 124.779 283.964,124.598 283.970,125.177 286.300 M154.000 290.200 C 154.000 291.332,153.679 291.438,152.615 290.661 C 151.756 290.032,152.102 289.200,153.224 289.200 C 153.785 289.200,154.000 289.477,154.000 290.200 M115.282 294.078 C 114.601 294.759,113.816 292.904,114.458 292.131 C 114.907 291.589,115.016 291.647,115.330 292.591 C 115.559 293.277,115.541 293.819,115.282 294.078 M112.800 295.539 C 112.800 295.920,113.140 296.897,113.555 297.711 C 113.970 298.525,114.433 299.868,114.584 300.696 C 114.819 301.983,119.300 313.711,122.688 321.905 C 123.953 324.963,124.458 324.705,117.899 324.356 C 105.937 323.720,102.029 319.336,104.606 309.442 C 106.349 302.751,112.800 291.805,112.800 295.539 M396.400 297.013 C 396.400 297.215,394.421 301.266,394.199 301.520 C 393.642 302.155,363.146 309.762,352.200 311.996 C 344.243 313.619,325.832 316.825,324.761 316.773 C 324.453 316.758,327.080 316.063,330.600 315.230 C 340.322 312.927,346.793 311.153,358.200 307.665 C 371.346 303.646,377.445 301.957,385.062 300.227 C 388.397 299.470,392.177 298.410,393.462 297.871 C 396.003 296.806,396.400 296.690,396.400 297.013 M123.158 312.164 C 124.724 316.544,125.936 320.197,125.851 320.283 C 125.505 320.628,118.971 303.554,118.242 300.400 C 117.695 298.033,120.536 304.831,123.158 312.164 M391.555 306.861 C 391.059 307.818,389.538 311.120,388.175 314.200 C 384.628 322.214,382.677 322.987,363.400 324.005 C 354.223 324.490,349.006 325.266,335.167 328.209 C 307.715 334.046,285.494 337.787,256.800 341.401 C 243.322 343.098,235.285 344.351,215.838 347.787 C 187.090 352.865,181.044 353.626,163.200 354.413 C 157.810 354.651,152.685 355.005,151.811 355.200 C 149.727 355.665,149.708 356.140,152.041 349.348 L 154.093 343.374 164.146 343.533 C 180.787 343.795,209.341 340.017,252.800 331.800 C 279.082 326.831,285.863 325.608,299.400 323.395 C 340.866 316.617,349.335 315.119,364.200 311.938 C 371.436 310.389,386.557 306.648,390.400 305.455 C 392.646 304.757,392.646 304.756,391.555 306.861 M383.728 325.031 C 382.972 327.249,383.508 327.067,376.200 327.595 C 350.932 329.420,330.129 332.881,268.000 345.594 C 215.873 356.260,189.475 360.161,165.900 360.685 C 158.099 360.858,155.600 361.033,155.600 361.409 C 155.600 361.768,154.422 361.923,151.329 361.973 C 148.980 362.010,146.922 362.125,146.756 362.227 C 145.648 362.912,142.000 359.378,142.000 357.619 C 142.000 357.360,141.350 355.764,140.557 354.074 C 138.577 349.859,137.127 346.476,137.610 347.200 C 137.830 347.530,138.952 349.371,140.105 351.292 C 144.639 358.848,145.465 359.352,151.000 357.944 C 151.880 357.720,158.270 357.394,165.200 357.221 L 177.800 356.905 192.400 354.639 C 200.430 353.393,213.930 351.219,222.400 349.808 C 243.110 346.357,254.297 344.661,266.000 343.196 C 285.566 340.747,295.626 339.033,327.000 332.807 C 352.831 327.681,355.058 327.325,364.800 326.768 C 373.967 326.244,378.303 325.599,381.400 324.298 C 382.720 323.744,383.924 323.270,384.076 323.245 C 384.227 323.220,384.071 324.024,383.728 325.031 M279.000 324.026 C 276.299 324.600,238.210 331.889,231.200 333.172 C 207.869 337.445,188.474 339.952,170.800 340.982 C 165.190 341.308,159.295 341.697,157.700 341.845 C 156.105 341.994,154.800 342.026,154.800 341.917 C 154.800 340.179,155.721 339.341,158.111 338.904 C 159.480 338.654,164.472 337.728,169.205 336.846 C 187.241 333.486,203.885 331.371,245.000 327.214 C 260.180 325.679,273.860 324.261,275.400 324.062 C 279.184 323.574,281.220 323.554,279.000 324.026 " stroke="none" fill="#000000" fill-rule="evenodd"></path></g></svg>